# Made in Blockbench 4.12.3
mtllib materials.mtl

o bb_main
v 0.5 0.125 0.5
v 0.5 0.125 0.125
v 0.5 -0.5 0.5
v 0.5 -0.5 0.125
v -0.5 0.125 0.125
v -0.5 0.125 0.5
v -0.5 -0.5 0.125
v -0.5 -0.5 0.5
vt 0 1
vt 1 1
vt 1 0.375
vt 0 0.375
vt 0.875 1
vt 1 1
vt 1 0.375
vt 0.875 0.375
vt 0.875 1
vt 1 1
vt 1 0.375
vt 0.875 0.375
vt 0 1
vt 1 1
vt 1 0.9375
vt 0 0.9375
vt 0 1
vt 1 1
vt 1 0.9375
vt 0 0.9375
vn 0 0 -1
vn 1 0 0
vn -1 0 0
vn 0 1 0
vn 0 -1 0
usemtl none
f 4/4/1 7/3/1 5/2/1 2/1/1
f 3/8/2 4/7/2 2/6/2 1/5/2
f 7/12/3 8/11/3 6/10/3 5/9/3
f 6/16/4 1/15/4 2/14/4 5/13/4
f 7/20/5 4/19/5 3/18/5 8/17/5