# Made in Blockbench 4.12.4
mtllib caixadagua2.mtl

o cx1
v 0.9125 0.578125 0.9125
v 0.9125 0.578125 -0.9125
v 0.9125 0.328125 0.9125
v 0.9125 0.328125 -0.9125
v -0.9125 0.578125 -0.9125
v -0.9125 0.578125 0.9125
v -0.9125 0.328125 -0.9125
v -0.9125 0.328125 0.9125
vt 0.2578125 0.3671875
vt 0.5078125 0.3671875
vt 0.5078125 0.3359375
vt 0.2578125 0.3359375
vt 0.2578125 0.3671875
vt 0.5078125 0.3671875
vt 0.5078125 0.3359375
vt 0.2578125 0.3359375
vt 0.2578125 0.3671875
vt 0.5078125 0.3671875
vt 0.5078125 0.3359375
vt 0.2578125 0.3359375
vt 0.2578125 0.3671875
vt 0.5078125 0.3671875
vt 0.5078125 0.3359375
vt 0.2578125 0.3359375
vt 0 0.71875
vt 0.25 0.71875
vt 0.25 0.46875
vt 0 0.46875
vt 0 1
vt 0 1
vt 0 1
vt 0 1
vn 0 0 -1
vn 1 0 0
vn 0 0 1
vn -1 0 0
vn 0 1 0
vn 0 -1 0
usemtl m_5a3068d8-385e-c012-89fa-b73a9e50128a
f 4/4/1 7/3/1 5/2/1 2/1/1
f 3/8/2 4/7/2 2/6/2 1/5/2
f 8/12/3 3/11/3 1/10/3 6/9/3
f 7/16/4 8/15/4 6/14/4 5/13/4
f 6/20/5 1/19/5 2/18/5 5/17/5
f 7/24/6 4/23/6 3/22/6 8/21/6
o cx1
v 0.8125 -0.1875 0.8125
v 0.8125 -0.1875 -0.8125
v 0.8125 -0.5 0.8125
v 0.8125 -0.5 -0.8125
v -0.8125 -0.1875 -0.8125
v -0.8125 -0.1875 0.8125
v -0.8125 -0.5 -0.8125
v -0.8125 -0.5 0.8125
vt 0.2890625 0.328125
vt 0.4921875 0.328125
vt 0.4921875 0.2890625
vt 0.2890625 0.2890625
vt 0.2890625 0.328125
vt 0.4921875 0.328125
vt 0.4921875 0.2890625
vt 0.2890625 0.2890625
vt 0.2890625 0.328125
vt 0.4921875 0.328125
vt 0.4921875 0.2890625
vt 0.2890625 0.2890625
vt 0.2890625 0.328125
vt 0.4921875 0.328125
vt 0.4921875 0.2890625
vt 0.2890625 0.2890625
vt 0 0.453125
vt 0.203125 0.453125
vt 0.203125 0.25
vt 0 0.25
vt 0 1
vt 0 1
vt 0 1
vt 0 1
vn 0 0 -1
vn 1 0 0
vn 0 0 1
vn -1 0 0
vn 0 1 0
vn 0 -1 0
usemtl m_5a3068d8-385e-c012-89fa-b73a9e50128a
f 12/28/7 15/27/7 13/26/7 10/25/7
f 11/32/8 12/31/8 10/30/8 9/29/8
f 16/36/9 11/35/9 9/34/9 14/33/9
f 15/40/10 16/39/10 14/38/10 13/37/10
f 14/44/11 9/43/11 10/42/11 13/41/11
f 15/48/12 12/47/12 11/46/12 16/45/12
o cx1
v 0.921875 0.3359375 0.921875
v 0.921875 0.3359375 -0.921875
v 0.921875 -0.2109375 0.921875
v 0.921875 -0.2109375 -0.921875
v -0.921875 0.3359375 -0.921875
v -0.921875 0.3359375 0.921875
v -0.921875 -0.2109375 -0.921875
v -0.921875 -0.2109375 0.921875
vt 0 1
vt 0.921875 1
vt 0.921875 0.7265625
vt 0 0.7265625
vt 0 1
vt 0.921875 1
vt 0.921875 0.7265625
vt 0 0.7265625
vt 0 1
vt 0.921875 1
vt 0.921875 0.7265625
vt 0 0.7265625
vt 0 1
vt 0.921875 1
vt 0.921875 0.7265625
vt 0 0.7265625
vt 0 1
vt 0.921875 1
vt 0.921875 0.078125
vt 0 0.078125
vt 0.125 0.375
vt 0.296875 0.375
vt 0.296875 0.078125
vt 0.125 0.078125
vn 0 0 -1
vn 1 0 0
vn 0 0 1
vn -1 0 0
vn 0 1 0
vn 0 -1 0
usemtl m_5a3068d8-385e-c012-89fa-b73a9e50128a
f 20/52/13 23/51/13 21/50/13 18/49/13
f 19/56/14 20/55/14 18/54/14 17/53/14
f 24/60/15 19/59/15 17/58/15 22/57/15
f 23/64/16 24/63/16 22/62/16 21/61/16
f 22/68/17 17/67/17 18/66/17 21/65/17
f 23/72/18 20/71/18 19/70/18 24/69/18
o cx1
v 0.93703125 0.671875 0.9370312500000001
v 0.93703125 0.671875 -0.93765625
v 0.93703125 0.546875 0.9370312500000001
v 0.93703125 0.546875 -0.93765625
v -0.9376562500000001 0.671875 -0.93765625
v -0.9376562500000001 0.671875 0.9370312500000001
v -0.9376562500000001 0.546875 -0.93765625
v -0.9376562500000001 0.546875 0.9370312500000001
vt 0.4765625 0.7109375
vt 0.7421875 0.7109375
vt 0.7421875 0.6953125
vt 0.4765625 0.6953125
vt 0.4765625 0.7109375
vt 0.7421875 0.7109375
vt 0.7421875 0.6953125
vt 0.4765625 0.6953125
vt 0.4765625 0.7109375
vt 0.7421875 0.7109375
vt 0.7421875 0.6953125
vt 0.4765625 0.6953125
vt 0.4765625 0.7109375
vt 0.7421875 0.7109375
vt 0.7421875 0.6953125
vt 0.4765625 0.6953125
vt 0.5390625 0.4296875
vt 0.7734375 0.4296875
vt 0.7734375 0.1953125
vt 0.5390625 0.1953125
vt 0 1
vt 0 1
vt 0 1
vt 0 1
vn 0 0 -1
vn 1 0 0
vn 0 0 1
vn -1 0 0
vn 0 1 0
vn 0 -1 0
usemtl m_5a3068d8-385e-c012-89fa-b73a9e50128a
f 28/76/19 31/75/19 29/74/19 26/73/19
f 27/80/20 28/79/20 26/78/20 25/77/20
f 32/84/21 27/83/21 25/82/21 30/81/21
f 31/88/22 32/87/22 30/86/22 29/85/22
f 30/92/23 25/91/23 26/90/23 29/89/23
f 31/96/24 28/95/24 27/94/24 32/93/24