# Made in Blockbench 4.12.4
mtllib cerca_verde_esq.mtl

o grade1
v -0.0625 1.1875 0
v -0.0625 1.1875 0
v -0.0625 -0.375 0
v -0.0625 -0.375 0
v -1.9375 1.1875 0
v -1.9375 1.1875 0
v -1.9375 -0.375 0
v -1.9375 -0.375 0
vt 0 1
vt 0.9090909090909091 1
vt 0.9090909090909091 0.19354838709677424
vt 0 0.19354838709677424
vn 0 0 -1
usemtl m_b5837e07-bb15-338b-2aed-ccf53853b3ae
f 4/4/1 7/3/1 5/2/1 2/1/1
o grade2
v -1.3877787807814457e-17 1.1875 0.0625
v -1.3877787807814457e-17 1.1875 0.0625
v -1.3877787807814457e-17 -0.375 0.0625
v -1.3877787807814457e-17 -0.375 0.0625
v -4.3021142204224816e-16 1.1875 1.9375
v -4.3021142204224816e-16 1.1875 1.9375
v -4.3021142204224816e-16 -0.375 1.9375
v -4.3021142204224816e-16 -0.375 1.9375
vt 0 1
vt 0.9090909090909091 1
vt 0.9090909090909091 0.19354838709677424
vt 0 0.19354838709677424
vn -1 0 -2.220446049250313e-16
usemtl m_b5837e07-bb15-338b-2aed-ccf53853b3ae
f 12/8/2 15/7/2 13/6/2 10/5/2
o toco
v 0.0625 1.25 0.0625
v 0.0625 1.25 -0.0625
v 0.0625 -0.5 0.0625
v 0.0625 -0.5 -0.0625
v -0.0625 1.25 -0.0625
v -0.0625 1.25 0.0625
v -0.0625 -0.5 -0.0625
v -0.0625 -0.5 0.0625
vt 0.9090909090909091 0.9032258064516129
vt 0.9696969696969697 0.9032258064516129
vt 0.9696969696969697 0
vt 0.9090909090909091 0
vt 0.9090909090909091 0.9032258064516129
vt 0.9696969696969697 0.9032258064516129
vt 0.9696969696969697 0
vt 0.9090909090909091 0
vt 0.9090909090909091 0.9032258064516129
vt 0.9696969696969697 0.9032258064516129
vt 0.9696969696969697 0
vt 0.9090909090909091 0
vt 0.9090909090909091 0.9032258064516129
vt 0.9696969696969697 0.9032258064516129
vt 0.9696969696969697 0
vt 0.9090909090909091 0
vt 0.9696969696969697 0.935483870967742
vt 0.9090909090909091 0.935483870967742
vt 0.9090909090909091 1
vt 0.9696969696969697 1
vt 0.9696969696969697 1
vt 0.9090909090909091 1
vt 0.9090909090909091 0.935483870967742
vt 0.9696969696969697 0.935483870967742
vn 0 0 -1
vn 1 0 0
vn 0 0 1
vn -1 0 0
vn 0 1 0
vn 0 -1 0
usemtl m_b5837e07-bb15-338b-2aed-ccf53853b3ae
f 20/12/3 23/11/3 21/10/3 18/9/3
f 19/16/4 20/15/4 18/14/4 17/13/4
f 24/20/5 19/19/5 17/18/5 22/17/5
f 23/24/6 24/23/6 22/22/6 21/21/6
f 22/28/7 17/27/7 18/26/7 21/25/7
f 23/32/8 20/31/8 19/30/8 24/29/8
o cabecote
v 0.09375 1.375 0.09375
v 0.09375 1.375 -0.09375
v 0.09375 1.25 0.09375
v 0.09375 1.25 -0.09375
v -0.09375 1.375 -0.09375
v -0.09375 1.375 0.09375
v -0.09375 1.25 -0.09375
v -0.09375 1.25 0.09375
vt 0.9090909090909091 0.967741935483871
vt 1 0.967741935483871
vt 1 0.9032258064516129
vt 0.9090909090909091 0.9032258064516129
vt 0.9090909090909091 0.967741935483871
vt 1 0.967741935483871
vt 1 0.9032258064516129
vt 0.9090909090909091 0.9032258064516129
vt 0.9090909090909091 0.967741935483871
vt 1 0.967741935483871
vt 1 0.9032258064516129
vt 0.9090909090909091 0.9032258064516129
vt 0.9090909090909091 0.967741935483871
vt 1 0.967741935483871
vt 1 0.9032258064516129
vt 0.9090909090909091 0.9032258064516129
vt 1 0.9032258064516129
vt 0.9090909090909091 0.9032258064516129
vt 0.9090909090909091 1
vt 1 1
vt 1 1
vt 0.9090909090909091 1
vt 0.9090909090909091 0.9032258064516129
vt 1 0.9032258064516129
vn 0 0 -1
vn 1 0 0
vn 0 0 1
vn -1 0 0
vn 0 1 0
vn 0 -1 0
usemtl m_b5837e07-bb15-338b-2aed-ccf53853b3ae
f 28/36/9 31/35/9 29/34/9 26/33/9
f 27/40/10 28/39/10 26/38/10 25/37/10
f 32/44/11 27/43/11 25/42/11 30/41/11
f 31/48/12 32/47/12 30/46/12 29/45/12
f 30/52/13 25/51/13 26/50/13 29/49/13
f 31/56/14 28/55/14 27/54/14 32/53/14