# Made in Blockbench 4.12.4
mtllib grade_verde_portao_opened.mtl

o grade1
v 0.06770940255246274 1.25 -0.056814934709005435
v -0.056814934709005435 1.25 -0.06770940255246274
v 0.06770940255246274 -0.5 -0.056814934709005435
v -0.056814934709005435 -0.5 -0.06770940255246274
v -0.06770940255246274 1.25 0.056814934709005435
v 0.056814934709005435 1.25 0.06770940255246274
v -0.06770940255246274 -0.5 0.056814934709005435
v 0.056814934709005435 -0.5 0.06770940255246274
vt 0.9090909090909091 0.9032258064516129
vt 0.9696969696969697 0.9032258064516129
vt 0.9696969696969697 0
vt 0.9090909090909091 0
vt 0.9090909090909091 0.9032258064516129
vt 0.9696969696969697 0.9032258064516129
vt 0.9696969696969697 0
vt 0.9090909090909091 0
vt 0.9090909090909091 0.9032258064516129
vt 0.9696969696969697 0.9032258064516129
vt 0.9696969696969697 0
vt 0.9090909090909091 0
vt 0.9090909090909091 0.9032258064516129
vt 0.9696969696969697 0.9032258064516129
vt 0.9696969696969697 0
vt 0.9090909090909091 0
vt 0.9696969696969697 0.935483870967742
vt 0.9090909090909091 0.935483870967742
vt 0.9090909090909091 1
vt 0.9696969696969697 1
vt 0.9696969696969697 1
vt 0.9090909090909091 1
vt 0.9090909090909091 0.935483870967742
vt 0.9696969696969697 0.935483870967742
vn -0.9961946980917457 0 -0.08715574274765849
vn 0.08715574274765849 0 -0.9961946980917457
vn 0.9961946980917457 0 0.08715574274765849
vn -0.08715574274765849 0 0.9961946980917457
vn 0 1 0
vn 0 -1 0
usemtl m_b5837e07-bb15-338b-2aed-ccf53853b3ae
f 4/4/1 7/3/1 5/2/1 2/1/1
f 3/8/2 4/7/2 2/6/2 1/5/2
f 8/12/3 3/11/3 1/10/3 6/9/3
f 7/16/4 8/15/4 6/14/4 5/13/4
f 6/20/5 1/19/5 2/18/5 5/17/5
f 7/24/6 4/23/6 3/22/6 8/21/6
o grade1
v -0.0054472339217286544 1.1875 0.06226216863073409
v -0.0054472339217286544 1.1875 0.06226216863073409
v -0.0054472339217286544 -0.375 0.06226216863073409
v -0.0054472339217286544 -0.375 0.06226216863073409
v -0.16886425157358828 1.1875 1.9301272275527568
v -0.16886425157358828 1.1875 1.9301272275527568
v -0.16886425157358828 -0.375 1.9301272275527568
v -0.16886425157358828 -0.375 1.9301272275527568
vt 0 1
vt 0.9090909090909091 1
vt 0.9090909090909091 0.19354838709677424
vt 0 0.19354838709677424
vn -0.9961946980917457 0 -0.08715574274765849
usemtl m_b5837e07-bb15-338b-2aed-ccf53853b3ae
f 12/28/7 15/27/7 13/26/7 10/25/7