# Made in Blockbench 4.12.4
mtllib cerca_arame_esq.mtl

o Block
v -0.06250000000000001 1.5 -0.06249999999999999
v -0.06249999999999999 1.5 0.06250000000000001
v -0.06250000000000001 0.5 -0.06249999999999999
v -0.06249999999999999 0.5 0.06250000000000001
v 0.06250000000000001 1.5 0.06249999999999999
v 0.06249999999999999 1.5 -0.06250000000000001
v 0.06250000000000001 0.5 0.06249999999999999
v 0.06249999999999999 0.5 -0.06250000000000001
vt 0.40625 1
vt 0.46875 1
vt 0.46875 0.5
vt 0.40625 0.5
vt 0.28125 1
vt 0.34375 1
vt 0.34375 0.5
vt 0.28125 0.5
vt 0.15625 1
vt 0.21875 1
vt 0.21875 0.5
vt 0.15625 0.5
vt 0 1
vt 0.0625 1
vt 0.0625 0.5
vt 0 0.5
vt 0.5 0.96875
vt 0.5625 0.96875
vt 0.5625 0.90625
vt 0.5 0.90625
vn 1.2246467991473532e-16 0 1
vn -1 0 1.2246467991473532e-16
vn -1.2246467991473532e-16 0 -1
vn 1 0 -1.2246467991473532e-16
vn 0 1 0
usemtl m_621c9524-a690-b9ac-73d8-1c03e86c3911
f 4/4/1 7/3/1 5/2/1 2/1/1
f 3/8/2 4/7/2 2/6/2 1/5/2
f 8/12/3 3/11/3 1/10/3 6/9/3
f 7/16/4 8/15/4 6/14/4 5/13/4
f 6/20/5 1/19/5 2/18/5 5/17/5
o arame
v -1.9375 1.3125 2.372753173347997e-16
v -1.9375 1.3125 2.372753173347997e-16
v -1.9375 0.5 2.372753173347997e-16
v -1.9375 0.5 2.372753173347997e-16
v -0.0625 1.3125 7.654042494670958e-18
v -0.0625 1.3125 7.654042494670958e-18
v -0.0625 0.5 7.654042494670958e-18
v -0.0625 0.5 7.654042494670958e-18
vt 0 0.40625
vt 0.9375 0.40625
vt 0.9375 0
vt 0 0
vn -1.2246467991473532e-16 0 -1
usemtl m_621c9524-a690-b9ac-73d8-1c03e86c3911
f 16/24/6 11/23/6 9/22/6 14/21/6
o arame
v -0.0004905465972919867 1.3125 1.9374999358304086
v -0.0004905465972919867 1.3125 1.9374999358304086
v -0.0004905465972919867 0.5 1.9374999358304086
v -0.0004905465972919867 0.5 1.9374999358304086
v 7.654042494670958e-18 1.3125 0.0625
v 7.654042494670958e-18 1.3125 0.0625
v 7.654042494670958e-18 0.5 0.0625
v 7.654042494670958e-18 0.5 0.0625
vt 0 0.40625
vt 0.9375 0.40625
vt 0.9375 0
vt 0 0
vn -0.9999999657762179 0 -0.0002616248518890637
usemtl m_621c9524-a690-b9ac-73d8-1c03e86c3911
f 24/28/7 19/27/7 17/26/7 22/25/7
o Block
v -0.06250000000000001 0.5 -0.06249999999999999
v -0.06249999999999999 0.5 0.06250000000000001
v -0.06250000000000001 -0.5 -0.06249999999999999
v -0.06249999999999999 -0.5 0.06250000000000001
v 0.06250000000000001 0.5 0.06249999999999999
v 0.06249999999999999 0.5 -0.06250000000000001
v 0.06250000000000001 -0.5 0.06249999999999999
v 0.06249999999999999 -0.5 -0.06250000000000001
vt 0.40625 1
vt 0.46875 1
vt 0.46875 0.5
vt 0.40625 0.5
vt 0.28125 1
vt 0.34375 1
vt 0.34375 0.5
vt 0.28125 0.5
vt 0.15625 1
vt 0.21875 1
vt 0.21875 0.5
vt 0.15625 0.5
vt 0 1
vt 0.0625 1
vt 0.0625 0.5
vt 0 0.5
vt 0.5 0.96875
vt 0.5625 0.96875
vt 0.5625 0.90625
vt 0.5 0.90625
vn 1.2246467991473532e-16 0 1
vn -1 0 1.2246467991473532e-16
vn -1.2246467991473532e-16 0 -1
vn 1 0 -1.2246467991473532e-16
vn 0 1 0
usemtl m_621c9524-a690-b9ac-73d8-1c03e86c3911
f 28/32/8 31/31/8 29/30/8 26/29/8
f 27/36/9 28/35/9 26/34/9 25/33/9
f 32/40/10 27/39/10 25/38/10 30/37/10
f 31/44/11 32/43/11 30/42/11 29/41/11
f 30/48/12 25/47/12 26/46/12 29/45/12
o arame
v -1.9375 0.3125 2.372753173347997e-16
v -1.9375 0.3125 2.372753173347997e-16
v -1.9375 -0.5 2.372753173347997e-16
v -1.9375 -0.5 2.372753173347997e-16
v -0.0625 0.3125 7.654042494670958e-18
v -0.0625 0.3125 7.654042494670958e-18
v -0.0625 -0.5 7.654042494670958e-18
v -0.0625 -0.5 7.654042494670958e-18
vt 0 0.40625
vt 0.9375 0.40625
vt 0.9375 0
vt 0 0
vn -1.2246467991473532e-16 0 -1
usemtl m_621c9524-a690-b9ac-73d8-1c03e86c3911
f 40/52/13 35/51/13 33/50/13 38/49/13
o arame
v -0.0004905465972919867 0.3125 1.9374999358304086
v -0.0004905465972919867 0.3125 1.9374999358304086
v -0.0004905465972919867 -0.5 1.9374999358304086
v -0.0004905465972919867 -0.5 1.9374999358304086
v 7.654042494670958e-18 0.3125 0.0625
v 7.654042494670958e-18 0.3125 0.0625
v 7.654042494670958e-18 -0.5 0.0625
v 7.654042494670958e-18 -0.5 0.0625
vt 0 0.40625
vt 0.9375 0.40625
vt 0.9375 0
vt 0 0
vn -0.9999999657762179 0 -0.0002616248518890637
usemtl m_621c9524-a690-b9ac-73d8-1c03e86c3911
f 48/56/14 43/55/14 41/54/14 46/53/14