# Made in Blockbench 4.12.4
mtllib club_jukebox.mtl

o Block
v -0.46875 0.78125 -0.21874999999999994
v -0.46875 0.78125 0.21875000000000006
v -0.46875 -0.46875 -0.21874999999999994
v -0.46875 -0.46875 0.21875000000000006
v 0.46875 0.78125 0.21874999999999994
v 0.46875 0.78125 -0.21875000000000006
v 0.46875 -0.46875 0.21874999999999994
v 0.46875 -0.46875 -0.21875000000000006
vt 0.46875 0.78125
vt 0.703125 0.78125
vt 0.703125 0.15625
vt 0.46875 0.15625
vt 0.359375 0.78125
vt 0.46875 0.78125
vt 0.46875 0.15625
vt 0.359375 0.15625
vt 0.125 0.78125
vt 0.359375 0.78125
vt 0.359375 0.15625
vt 0.125 0.15625
vt 0.015625 0.78125
vt 0.125 0.78125
vt 0.125 0.15625
vt 0.015625 0.15625
vt 0.125 1
vt 0.359375 1
vt 0.359375 0.78125
vt 0.125 0.78125
vt 0.359375 1
vt 0.59375 1
vt 0.59375 0.78125
vt 0.359375 0.78125
vn 1.2246467991473532e-16 0 1
vn -1 0 1.2246467991473532e-16
vn -1.2246467991473532e-16 0 -1
vn 1 0 -1.2246467991473532e-16
vn 0 1 0
vn 0 -1 0
usemtl m_4e88ff4e-1b21-6948-c26c-adf146526e00
f 4/4/1 7/3/1 5/2/1 2/1/1
f 3/8/2 4/7/2 2/6/2 1/5/2
f 8/12/3 3/11/3 1/10/3 6/9/3
f 7/16/4 8/15/4 6/14/4 5/13/4
f 6/20/5 1/19/5 2/18/5 5/17/5
f 7/24/6 4/23/6 3/22/6 8/21/6