# Made in Blockbench 4.12.4
mtllib grade_barriga.mtl

o bb_main
v -0.5 -0.4086968616663119 -0.7503950240261804
v -0.5 -0.470959030297046 -0.755842257947909
v -0.5 -0.43130288244148585 -0.49200702420863396
v -0.5 -0.49356505107221993 -0.4974542581303626
v -1.5 -0.470959030297046 -0.755842257947909
v -1.5 -0.4086968616663119 -0.7503950240261804
v -1.5 -0.49356505107221993 -0.4974542581303626
v -1.5 -0.43130288244148585 -0.49200702420863396
vt 0 1
vt 1 1
vt 1 0.740625
vt 0 0.740625
vt 0.0625 1
vt 0.125 1
vt 0.125 0.740625
vt 0.0625 0.740625
vt 0.0625 1
vt 0.125 1
vt 0.125 0.740625
vt 0.0625 0.740625
vn 0 -0.9961946980917457 -0.08715574274765849
vn 1 0 0
vn -1 0 0
usemtl m_57c768ee-97fd-77af-f5fa-442d7800430f
f 4/4/1 7/3/1 5/2/1 2/1/1
f 3/8/2 4/7/2 2/6/2 1/5/2
f 7/12/3 8/11/3 6/10/3 5/9/3
o bb_main
v 0.5 0.47487481798508036 -0.4341552953772062
v 0.5 0.49105100830398796 -0.494525659520273
v 0.5 -0.49105100830398796 -0.692974340479727
v 0.5 -0.47487481798508036 -0.7533447046227938
v -0.5 0.49105100830398796 -0.494525659520273
v -0.5 0.47487481798508036 -0.4341552953772062
v -0.5 -0.47487481798508036 -0.7533447046227938
v -0.5 -0.49105100830398796 -0.692974340479727
vt 0 1
vt 1 1
vt 1 0
vt 0 0
vt 0 1
vt 0.0625 1
vt 0.0625 0
vt 0 0
vt 0.0625 1
vt 0.125 1
vt 0.125 0
vt 0.0625 0
vn 0 0.25881904510252074 -0.9659258262890683
vn 1 0 0
vn -1 0 0
usemtl m_57c768ee-97fd-77af-f5fa-442d7800430f
f 12/16/4 15/15/4 13/14/4 10/13/4
f 11/20/5 12/19/5 10/18/5 9/17/5
f 15/24/6 16/23/6 14/22/6 13/21/6
o bb_main
v 0.5 -0.4086968616663119 -0.7503950240261804
v 0.5 -0.470959030297046 -0.755842257947909
v 0.5 -0.43130288244148585 -0.49200702420863396
v 0.5 -0.49356505107221993 -0.4974542581303626
v -0.5 -0.470959030297046 -0.755842257947909
v -0.5 -0.4086968616663119 -0.7503950240261804
v -0.5 -0.49356505107221993 -0.4974542581303626
v -0.5 -0.43130288244148585 -0.49200702420863396
vt 0 1
vt 1 1
vt 1 0.740625
vt 0 0.740625
vt 0.0625 1
vt 0.125 1
vt 0.125 0.740625
vt 0.0625 0.740625
vt 0.0625 1
vt 0.125 1
vt 0.125 0.740625
vt 0.0625 0.740625
vn 0 -0.9961946980917457 -0.08715574274765849
vn 1 0 0
vn -1 0 0
usemtl m_57c768ee-97fd-77af-f5fa-442d7800430f
f 20/28/7 23/27/7 21/26/7 18/25/7
f 19/32/8 20/31/8 18/30/8 17/29/8
f 23/36/9 24/35/9 22/34/9 21/33/9
o bb_main
v -0.5 0.47487481798508036 -0.4341552953772062
v -0.5 0.49105100830398796 -0.494525659520273
v -0.5 -0.49105100830398796 -0.692974340479727
v -0.5 -0.47487481798508036 -0.7533447046227938
v -1.5 0.49105100830398796 -0.494525659520273
v -1.5 0.47487481798508036 -0.4341552953772062
v -1.5 -0.47487481798508036 -0.7533447046227938
v -1.5 -0.49105100830398796 -0.692974340479727
vt 0 1
vt 1 1
vt 1 0
vt 0 0
vt 0 1
vt 0.0625 1
vt 0.0625 0
vt 0 0
vt 0.0625 1
vt 0.125 1
vt 0.125 0
vt 0.0625 0
vn 0 0.25881904510252074 -0.9659258262890683
vn 1 0 0
vn -1 0 0
usemtl m_57c768ee-97fd-77af-f5fa-442d7800430f
f 28/40/10 31/39/10 29/38/10 26/37/10
f 27/44/11 28/43/11 26/42/11 25/41/11
f 31/48/12 32/47/12 30/46/12 29/45/12