# Made in Blockbench 4.12.4
mtllib grade_esquina.mtl

o cube
v 0 0.5 0
v 0 0.5 0
v 0 -0.5 0
v 0 -0.5 0
v -0.5 0.5 0
v -0.5 0.5 0
v -0.5 -0.5 0
v -0.5 -0.5 0
vt 0 1
vt 0.5 1
vt 0.5 0
vt 0 0
vn 0 0 -1
usemtl m_fb09802d-284e-611a-6be6-14b0a55ddc90
f 4/4/1 7/3/1 5/2/1 2/1/1
o cube
v 0 0.5 0.5
v 0 0.5 0.5
v 0 -0.5 0.5
v 0 -0.5 0.5
v -1.1102230246251565e-16 0.5 0
v -1.1102230246251565e-16 0.5 0
v -1.1102230246251565e-16 -0.5 0
v -1.1102230246251565e-16 -0.5 0
vt 0.5 1
vt 0 1
vt 0 0
vt 0.5 0
vn 1 0 -2.220446049250313e-16
usemtl m_fb09802d-284e-611a-6be6-14b0a55ddc90
f 12/8/2 15/7/2 13/6/2 10/5/2