# Made in Blockbench 4.12.4
mtllib pia_vovo.mtl

o pia_vovo
v 1.4374999590205677 -0.3749999999999998 0.46875012567023927
v 1.4375000409794207 -0.3749999999999999 -0.46874987432975695
v 1.4374999590205677 -0.4999999999999998 0.46875012567023927
v 1.4375000409794207 -0.4999999999999999 -0.46874987432975695
v -1.3124999590205682 -0.3750000000000002 -0.4687501147423922
v -1.3125000409794212 -0.3750000000000001 0.468749885257604
v -1.3124999590205682 -0.5000000000000002 -0.4687501147423922
v -1.3125000409794212 -0.5000000000000001 0.468749885257604
vt 0.1171875 0.875
vt 0.4609375 0.875
vt 0.4609375 0.859375
vt 0.1171875 0.859375
vt 0.1171875 0.875
vt 0.234375 0.875
vt 0.234375 0.859375
vt 0.1171875 0.859375
vt 0.1171875 0.875
vt 0.4609375 0.875
vt 0.4609375 0.859375
vt 0.1171875 0.859375
vt 0.1171875 0.875
vt 0.234375 0.875
vt 0.234375 0.859375
vt 0.1171875 0.859375
vt 0.1171875 0.875
vt 0.4609375 0.875
vt 0.4609375 0.7578125
vt 0.1171875 0.7578125
vt 0.1171875 0.875
vt 0.4609375 0.875
vt 0.4609375 0.7578125
vt 0.1171875 0.7578125
vn 8.74227764510112e-8 -1.2246466920853296e-16 -0.9999999999999962
vn 0.9999999999999962 1.2246467991473485e-16 8.74227764510112e-8
vn -8.74227764510112e-8 1.2246466920853296e-16 0.9999999999999962
vn -0.9999999999999962 -1.2246467991473485e-16 -8.74227764510112e-8
vn -1.2246466920853301e-16 1 -1.2246467991473485e-16
vn 1.2246466920853301e-16 -1 1.2246467991473485e-16
usemtl m_808a16fc-a598-e12b-8b6f-1f411215d780
f 4/4/1 7/3/1 5/2/1 2/1/1
f 3/8/2 4/7/2 2/6/2 1/5/2
f 8/12/3 3/11/3 1/10/3 6/9/3
f 7/16/4 8/15/4 6/14/4 5/13/4
f 6/20/5 1/19/5 2/18/5 5/17/5
f 7/24/6 4/23/6 3/22/6 8/21/6
o cube
v 0.11168810153893985 0.6595312356948853 0.4062500097640853
v 0.11168812339463396 0.6595312356948853 0.15625000976408632
v 0.11168810153893985 0.5970312356948853 0.4062500097640853
v 0.11168812339463396 0.5970312356948853 0.15625000976408632
v 0.0491881233946342 0.6595312356948853 0.15625000430016278
v 0.049188101538940085 0.6595312356948853 0.4062500043001618
v 0.04918812339463421 0.5970312356948853 0.15625000430016278
v 0.0491881015389401 0.5970312356948853 0.4062500043001618
vt 0.1640625 0.9609375
vt 0.171875 0.9609375
vt 0.171875 0.953125
vt 0.1640625 0.953125
vt 0.140625 0.953125
vt 0.171875 0.953125
vt 0.171875 0.9453125
vt 0.140625 0.9453125
vt 0.15625 0.953125
vt 0.1640625 0.953125
vt 0.1640625 0.9453125
vt 0.15625 0.9453125
vt 0.15625 0.953125
vt 0.1875 0.953125
vt 0.1875 0.9453125
vt 0.15625 0.9453125
vt 0.15625 0.921875
vt 0.1484375 0.921875
vt 0.1484375 0.953125
vt 0.15625 0.953125
vt 0.171875 0.921875
vt 0.1640625 0.921875
vt 0.1640625 0.890625
vt 0.171875 0.890625
vn 8.74227764510112e-8 -1.2246466920853296e-16 -0.9999999999999962
vn 0.9999999999999962 1.2246467991473485e-16 8.74227764510112e-8
vn -8.74227764510112e-8 1.2246466920853296e-16 0.9999999999999962
vn -0.9999999999999962 -1.2246467991473485e-16 -8.74227764510112e-8
vn -1.2246466920853301e-16 1 -1.2246467991473485e-16
vn 1.2246466920853301e-16 -1 1.2246467991473485e-16
usemtl m_808a16fc-a598-e12b-8b6f-1f411215d780
f 12/28/7 15/27/7 13/26/7 10/25/7
f 11/32/8 12/31/8 10/30/8 9/29/8
f 16/36/9 11/35/9 9/34/9 14/33/9
f 15/40/10 16/39/10 14/38/10 13/37/10
f 14/44/11 9/43/11 10/42/11 13/41/11
f 15/48/12 12/47/12 11/46/12 16/45/12
o cube
v -1.3125000382474594 0.4062499999999999 0.437499885257604
v -1.3124999562886064 0.4062499999999998 -0.5000001147423923
v -1.3125000382474594 -0.5312500000000001 0.43749988525760414
v -1.3124999562886064 -0.5312500000000002 -0.5000001147423921
v -1.437499956288606 0.40624999999999967 -0.5000001256702392
v -1.437500038247459 0.4062499999999998 0.43749987432975695
v -1.437499956288606 -0.5312500000000002 -0.5000001256702391
v -1.437500038247459 -0.5312500000000001 0.43749987432975707
vt 0.4140625 0.5234375
vt 0.4296875 0.5234375
vt 0.4296875 0.40625
vt 0.4140625 0.40625
vt 0.4140625 0.5234375
vt 0.53125 0.5234375
vt 0.53125 0.40625
vt 0.4140625 0.40625
vt 0.4140625 0.5234375
vt 0.4296875 0.5234375
vt 0.4296875 0.40625
vt 0.4140625 0.40625
vt 0.4140625 0.5234375
vt 0.53125 0.5234375
vt 0.53125 0.40625
vt 0.4140625 0.40625
vt 0.4140625 0.5234375
vt 0.4296875 0.5234375
vt 0.4296875 0.40625
vt 0.4140625 0.40625
vt 0.4140625 0.5234375
vt 0.4296875 0.5234375
vt 0.4296875 0.40625
vt 0.4140625 0.40625
vn 8.74227764510112e-8 -1.2246466920853296e-16 -0.9999999999999962
vn 0.9999999999999962 1.2246467991473485e-16 8.74227764510112e-8
vn -8.74227764510112e-8 1.2246466920853296e-16 0.9999999999999962
vn -0.9999999999999962 -1.2246467991473485e-16 -8.74227764510112e-8
vn -1.2246466920853301e-16 1 -1.2246467991473485e-16
vn 1.2246466920853301e-16 -1 1.2246467991473485e-16
usemtl m_808a16fc-a598-e12b-8b6f-1f411215d780
f 20/52/13 23/51/13 21/50/13 18/49/13
f 19/56/14 20/55/14 18/54/14 17/53/14
f 24/60/15 19/59/15 17/58/15 22/57/15
f 23/64/16 24/63/16 22/62/16 21/61/16
f 22/68/17 17/67/17 18/66/17 21/65/17
f 23/72/18 20/71/18 19/70/18 24/69/18
o cube
v 1.562499961752529 0.4062500000000002 0.43750013659808634
v 1.5625000437113818 0.4062500000000001 -0.4999998634019099
v 1.562499961752529 -0.5312499999999998 0.43750013659808645
v 1.562500043711382 -0.5312499999999999 -0.49999986340190977
v 1.4375000437113825 0.4062500000000001 -0.4999998743297569
v 1.4374999617525295 0.4062500000000002 0.43750012567023927
v 1.4375000437113825 -0.5312499999999999 -0.4999998743297568
v 1.4374999617525297 -0.5312499999999998 0.4375001256702394
vt 0.25 0.5234375
vt 0.265625 0.5234375
vt 0.265625 0.40625
vt 0.25 0.40625
vt 0.25 0.5234375
vt 0.3671875 0.5234375
vt 0.3671875 0.40625
vt 0.25 0.40625
vt 0.25 0.5234375
vt 0.265625 0.5234375
vt 0.265625 0.40625
vt 0.25 0.40625
vt 0.25 0.5234375
vt 0.3671875 0.5234375
vt 0.3671875 0.40625
vt 0.25 0.40625
vt 0.25 0.5234375
vt 0.265625 0.5234375
vt 0.265625 0.40625
vt 0.25 0.40625
vt 0.25 0.5234375
vt 0.265625 0.5234375
vt 0.265625 0.40625
vt 0.25 0.40625
vn 8.74227764510112e-8 -1.2246466920853296e-16 -0.9999999999999962
vn 0.9999999999999962 1.2246467991473485e-16 8.74227764510112e-8
vn -8.74227764510112e-8 1.2246466920853296e-16 0.9999999999999962
vn -0.9999999999999962 -1.2246467991473485e-16 -8.74227764510112e-8
vn -1.2246466920853301e-16 1 -1.2246467991473485e-16
vn 1.2246466920853301e-16 -1 1.2246467991473485e-16
usemtl m_808a16fc-a598-e12b-8b6f-1f411215d780
f 28/76/19 31/75/19 29/74/19 26/73/19
f 27/80/20 28/79/20 26/78/20 25/77/20
f 32/84/21 27/83/21 25/82/21 30/81/21
f 31/88/22 32/87/22 30/86/22 29/85/22
f 30/92/23 25/91/23 26/90/23 29/89/23
f 31/96/24 28/95/24 27/94/24 32/93/24
o cube
v 1.4375000368814779 0.4062500000000001 -0.4218748743297573
v 1.4375000368814779 0.4062500000000001 -0.4218748743297573
v 1.4375000368814779 -0.4687499999999999 -0.4218748743297572
v 1.4375000368814779 -0.4687499999999999 -0.4218748743297572
v -1.312499963118511 0.4062499999999998 -0.42187511474239253
v -1.312499963118511 0.4062499999999998 -0.42187511474239253
v -1.312499963118511 -0.4687500000000002 -0.4218751147423924
v -1.312499963118511 -0.4687500000000002 -0.4218751147423924
vt 0.34375 0.75
vt 0.6875 0.75
vt 0.6875 0.640625
vt 0.34375 0.640625
vt 0.34375 0.75
vt 0.34375 0.75
vt 0.34375 0.640625
vt 0.34375 0.640625
vt 0 0.75
vt 0.34375 0.75
vt 0.34375 0.640625
vt 0 0.640625
vt 0 0.75
vt 0 0.75
vt 0 0.640625
vt 0 0.640625
vt 0 0.75
vt 0.34375 0.75
vt 0.34375 0.75
vt 0 0.75
vt 0.34375 0.75
vt 0.6875 0.75
vt 0.6875 0.75
vt 0.34375 0.75
vn 8.74227764510112e-8 -1.2246466920853296e-16 -0.9999999999999962
vn 0.9999999999999962 1.2246467991473485e-16 8.74227764510112e-8
vn -8.74227764510112e-8 1.2246466920853296e-16 0.9999999999999962
vn -0.9999999999999962 -1.2246467991473485e-16 -8.74227764510112e-8
vn -1.2246466920853301e-16 1 -1.2246467991473485e-16
vn 1.2246466920853301e-16 -1 1.2246467991473485e-16
usemtl m_808a16fc-a598-e12b-8b6f-1f411215d780
f 36/100/25 39/99/25 37/98/25 34/97/25
f 35/104/26 36/103/26 34/102/26 33/101/26
f 40/108/27 35/107/27 33/106/27 38/105/27
f 39/112/28 40/111/28 38/110/28 37/109/28
f 38/116/29 33/115/29 34/114/29 37/113/29
f 39/120/30 36/119/30 35/118/30 40/117/30
o cube
v -0.49999997814430397 0.21874999999999992 -0.25000004371138734
v -0.5000000273196158 0.21874999999999997 0.31249995628861044
v -0.49999997814430397 0.4687499999999999 -0.25000004371138734
v -0.5000000273196158 0.46874999999999994 0.31249995628861044
v 0.56249997268038 0.2187500000000001 0.31250004917531043
v 0.5625000218556918 0.21875000000000006 -0.24999995082468734
v 0.56249997268038 0.4687500000000001 0.31250004917531043
v 0.5625000218556918 0.46875 -0.24999995082468734
vt 0.546875 0.5703125
vt 0.4140625 0.5703125
vt 0.4140625 0.5390625
vt 0.546875 0.5390625
vt 0.6171875 0.5703125
vt 0.546875 0.5703125
vt 0.546875 0.5390625
vt 0.6171875 0.5390625
vt 0.75 0.5703125
vt 0.6171875 0.5703125
vt 0.6171875 0.5390625
vt 0.75 0.5390625
vt 0.8203125 0.5703125
vt 0.75 0.5703125
vt 0.75 0.5390625
vt 0.8203125 0.5390625
vt 0.75 0.640625
vt 0.6171875 0.640625
vt 0.6171875 0.5703125
vt 0.75 0.5703125
vt 0.6171875 0.640625
vt 0.484375 0.640625
vt 0.484375 0.5703125
vt 0.6171875 0.5703125
vn 8.74227764510112e-8 -1.2246466920853296e-16 -0.9999999999999962
vn 0.9999999999999962 1.2246467991473485e-16 8.74227764510112e-8
vn -8.74227764510112e-8 1.2246466920853296e-16 0.9999999999999962
vn -0.9999999999999962 -1.2246467991473485e-16 -8.74227764510112e-8
vn -1.2246466920853301e-16 1 -1.2246467991473485e-16
vn 1.2246466920853301e-16 -1 1.2246467991473485e-16
usemtl m_808a16fc-a598-e12b-8b6f-1f411215d780
f 44/124/31 47/123/31 45/122/31 42/121/31
f 43/128/32 44/127/32 42/126/32 41/125/32
f 48/132/33 43/131/33 41/130/33 46/129/33
f 47/136/34 48/135/34 46/134/34 45/133/34
f 46/140/35 41/139/35 42/138/35 45/137/35
f 47/144/36 44/143/36 43/142/36 48/141/36
o cube
v 0.2968749658504766 0.5625 0.3906250259536351
v 0.29687497677832364 0.5625 0.2656250259536356
v 0.2968749658504766 0.5 0.39062502595363513
v 0.29687497677832364 0.5 0.2656250259536356
v 0.17187497677832414 0.5625 0.2656250150257885
v 0.1718749658504771 0.5625 0.39062501502578806
v 0.17187497677832417 0.5 0.2656250150257885
v 0.1718749658504771 0.5 0.39062501502578806
vt 0.015625 0.96875
vt 0 0.96875
vt 0 0.9765625
vt 0.015625 0.9765625
vt 0 0.96875
vt -0.015625 0.96875
vt -0.015625 0.9765625
vt 0 0.9765625
vt 0.046875 0.96875
vt 0.03125 0.96875
vt 0.03125 0.9765625
vt 0.046875 0.9765625
vt 0.03125 0.96875
vt 0.015625 0.96875
vt 0.015625 0.9765625
vt 0.03125 0.9765625
vt 0.015625 0.984375
vt 0.03125 0.984375
vt 0.03125 0.96875
vt 0.015625 0.96875
vt 0.03125 0.96875
vt 0.046875 0.96875
vt 0.046875 0.984375
vt 0.03125 0.984375
vn 8.74227764510112e-8 -1.2246466920853296e-16 -0.9999999999999962
vn 0.9999999999999962 1.2246467991473485e-16 8.74227764510112e-8
vn -8.74227764510112e-8 1.2246466920853296e-16 0.9999999999999962
vn -0.9999999999999962 -1.2246467991473485e-16 -8.74227764510112e-8
vn -1.2246466920853301e-16 1 -1.2246467991473485e-16
vn 1.2246466920853301e-16 -1 1.2246467991473485e-16
usemtl m_808a16fc-a598-e12b-8b6f-1f411215d780
f 52/148/37 55/147/37 53/146/37 50/145/37
f 51/152/38 52/151/38 50/150/38 49/149/38
f 56/156/39 51/155/39 49/154/39 54/153/39
f 55/160/40 56/159/40 54/158/40 53/157/40
f 54/164/41 49/163/41 50/162/41 53/161/41
f 55/168/42 52/167/42 51/166/42 56/165/42
o cube
v 0.2656249685824385 0.53125 0.3593750232216734
v 0.26562497404636204 0.53125 0.2968750232216737
v 0.2656249685824385 0.46875 0.3593750232216735
v 0.26562497404636204 0.46875 0.2968750232216737
v 0.2031249740463623 0.53125 0.29687501775775016
v 0.20312496858243875 0.53125 0.35937501775774994
v 0.2031249740463623 0.46875 0.29687501775775016
v 0.20312496858243878 0.46875 0.35937501775774994
vt 0.0078125 0.9921875
vt 0 0.9921875
vt 0 1
vt 0.0078125 1
vt 0 0.9921875
vt -0.0078125 0.9921875
vt -0.0078125 1
vt 0 1
vt 0.0234375 0.9921875
vt 0.015625 0.9921875
vt 0.015625 1
vt 0.0234375 1
vt 0.015625 0.9921875
vt 0.0078125 0.9921875
vt 0.0078125 1
vt 0.015625 1
vt 0.0078125 1
vt 0.015625 1
vt 0.015625 0.9921875
vt 0.0078125 0.9921875
vt 0.015625 0.9921875
vt 0.0234375 0.9921875
vt 0.0234375 1
vt 0.015625 1
vn 8.74227764510112e-8 -1.2246466920853296e-16 -0.9999999999999962
vn 0.9999999999999962 1.2246467991473485e-16 8.74227764510112e-8
vn -8.74227764510112e-8 1.2246466920853296e-16 0.9999999999999962
vn -0.9999999999999962 -1.2246467991473485e-16 -8.74227764510112e-8
vn -1.2246466920853301e-16 1 -1.2246467991473485e-16
vn 1.2246466920853301e-16 -1 1.2246467991473485e-16
usemtl m_808a16fc-a598-e12b-8b6f-1f411215d780
f 60/172/43 63/171/43 61/170/43 58/169/43
f 59/176/44 60/175/44 58/174/44 57/173/44
f 64/180/45 59/179/45 57/178/45 62/177/45
f 63/184/46 64/183/46 62/182/46 61/181/46
f 62/188/47 57/187/47 58/186/47 61/185/47
f 63/192/48 60/191/48 59/190/48 64/189/48
o cube
v 1.562499961752529 0.4687500000000003 0.43750013659808634
v 1.5625000437113816 0.46875000000000017 -0.4999998634019098
v 1.562499961752529 0.4062500000000003 0.4375001365980864
v 1.5625000437113816 0.40625000000000017 -0.4999998634019098
v -1.4374999562886062 0.46874999999999983 -0.5000001256702392
v -1.437500038247459 0.46874999999999994 0.437499874329757
v -1.4374999562886062 0.40624999999999983 -0.5000001256702392
v -1.437500038247459 0.40624999999999994 0.437499874329757
vt 0.1171875 0.8828125
vt -0.2578125 0.8828125
vt -0.2578125 0.875
vt 0.1171875 0.875
vt 0 0.8828125
vt -0.1171875 0.8828125
vt -0.1171875 0.875
vt 0 0.875
vt 0.609375 0.8828125
vt 0.234375 0.8828125
vt 0.234375 0.875
vt 0.609375 0.875
vt 0.4921875 0.8828125
vt 0.375 0.8828125
vt 0.375 0.875
vt 0.4921875 0.875
vt 0.1171875 0.8828125
vt 0.4921875 0.8828125
vt 0.4921875 1
vt 0.1171875 1
vt 0.4921875 1
vt 0.8671875 1
vt 0.8671875 0.8828125
vt 0.4921875 0.8828125
vn 8.74227764510112e-8 -1.2246466920853296e-16 -0.9999999999999962
vn 0.9999999999999962 1.2246467991473485e-16 8.74227764510112e-8
vn -8.74227764510112e-8 1.2246466920853296e-16 0.9999999999999962
vn -0.9999999999999962 -1.2246467991473485e-16 -8.74227764510112e-8
vn -1.2246466920853301e-16 1 -1.2246467991473485e-16
vn 1.2246466920853301e-16 -1 1.2246467991473485e-16
usemtl m_808a16fc-a598-e12b-8b6f-1f411215d780
f 68/196/49 71/195/49 69/194/49 66/193/49
f 67/200/50 68/199/50 66/198/50 65/197/50
f 72/204/51 67/203/51 65/202/51 70/201/51
f 71/208/52 72/207/52 70/206/52 69/205/52
f 70/212/53 65/211/53 66/210/53 69/209/53
f 71/216/54 68/215/54 67/214/54 72/213/54
o cube
v -0.031250031417560296 0.53125 0.3593749972680367
v -0.03125002595363677 0.53125 0.29687499726803696
v -0.03125003141756029 0.46875 0.3593749972680367
v -0.03125002595363676 0.46875 0.29687499726803696
v -0.09375002595363652 0.53125 0.2968749918041134
v -0.09375003141756005 0.53125 0.35937499180411314
v -0.09375002595363652 0.46875 0.2968749918041134
v -0.09375003141756004 0.46875 0.3593749918041132
vt 0.0078125 0.9921875
vt 0 0.9921875
vt 0 1
vt 0.0078125 1
vt 0 0.9921875
vt -0.0078125 0.9921875
vt -0.0078125 1
vt 0 1
vt 0.0234375 0.9921875
vt 0.015625 0.9921875
vt 0.015625 1
vt 0.0234375 1
vt 0.015625 0.9921875
vt 0.0078125 0.9921875
vt 0.0078125 1
vt 0.015625 1
vt 0.0078125 1
vt 0.015625 1
vt 0.015625 0.9921875
vt 0.0078125 0.9921875
vt 0.015625 0.9921875
vt 0.0234375 0.9921875
vt 0.0234375 1
vt 0.015625 1
vn 8.74227764510112e-8 -1.2246466920853296e-16 -0.9999999999999962
vn 0.9999999999999962 1.2246467991473485e-16 8.74227764510112e-8
vn -8.74227764510112e-8 1.2246466920853296e-16 0.9999999999999962
vn -0.9999999999999962 -1.2246467991473485e-16 -8.74227764510112e-8
vn -1.2246466920853301e-16 1 -1.2246467991473485e-16
vn 1.2246466920853301e-16 -1 1.2246467991473485e-16
usemtl m_808a16fc-a598-e12b-8b6f-1f411215d780
f 76/220/55 79/219/55 77/218/55 74/217/55
f 75/224/56 76/223/56 74/222/56 73/221/56
f 80/228/57 75/227/57 73/226/57 78/225/57
f 79/232/58 80/231/58 78/230/58 77/229/58
f 78/236/59 73/235/59 74/234/59 77/233/59
f 79/240/60 76/239/60 75/238/60 80/237/60
o cube
v -3.4149522168402946e-8 0.5625 0.39062499999999833
v -2.322167511059625e-8 0.5625 0.26562499999999883
v -3.4149522168402946e-8 0.5 0.39062499999999833
v -2.322167511059625e-8 0.5 0.26562499999999883
v -0.12500002322167464 0.5625 0.26562498907215176
v -0.12500003414952168 0.5625 0.39062498907215126
v -0.1250000232216746 0.5 0.2656249890721518
v -0.12500003414952168 0.5 0.3906249890721513
vt 0.015625 0.984375
vt 0 0.984375
vt 0 0.9921875
vt 0.015625 0.9921875
vt 0 0.984375
vt -0.015625 0.984375
vt -0.015625 0.9921875
vt 0 0.9921875
vt 0.046875 0.984375
vt 0.03125 0.984375
vt 0.03125 0.9921875
vt 0.046875 0.9921875
vt 0.03125 0.984375
vt 0.015625 0.984375
vt 0.015625 0.9921875
vt 0.03125 0.9921875
vt 0.015625 1
vt 0.03125 1
vt 0.03125 0.984375
vt 0.015625 0.984375
vt 0.03125 0.984375
vt 0.046875 0.984375
vt 0.046875 1
vt 0.03125 1
vn 8.74227764510112e-8 -1.2246466920853296e-16 -0.9999999999999962
vn 0.9999999999999962 1.2246467991473485e-16 8.74227764510112e-8
vn -8.74227764510112e-8 1.2246466920853296e-16 0.9999999999999962
vn -0.9999999999999962 -1.2246467991473485e-16 -8.74227764510112e-8
vn -1.2246466920853301e-16 1 -1.2246467991473485e-16
vn 1.2246466920853301e-16 -1 1.2246467991473485e-16
usemtl m_808a16fc-a598-e12b-8b6f-1f411215d780
f 84/244/61 87/243/61 85/242/61 82/241/61
f 83/248/62 84/247/62 82/246/62 81/245/62
f 88/252/63 83/251/63 81/250/63 86/249/63
f 87/256/64 88/255/64 86/254/64 85/253/64
f 86/260/65 81/259/65 82/258/65 85/257/65
f 87/264/66 84/263/66 83/262/66 88/261/66
o cube
v 0.1123131031855576 0.5976562360301614 0.39125001015400074
v 0.11231310864948112 0.5976562360301614 0.32875001015400096
v 0.1123131031855576 0.4726562360301614 0.39125001015400074
v 0.11231310864948113 0.4726562360301614 0.328750010154001
v 0.049813108649481366 0.5976562360301614 0.3287500046900774
v 0.04981310318555784 0.5976562360301614 0.3912500046900772
v 0.04981310864948138 0.4726562360301614 0.3287500046900775
v 0.04981310318555785 0.4726562360301614 0.3912500046900772
vt 0.1875 0.921875
vt 0.1875 0.921875
vt 0.1875 0.90625
vt 0.1875 0.90625
vt 0.1875 0.921875
vt 0.1875 0.921875
vt 0.1875 0.90625
vt 0.1875 0.90625
vt 0.1875 0.921875
vt 0.1875 0.921875
vt 0.1875 0.90625
vt 0.1875 0.90625
vt 0.1875 0.921875
vt 0.1875 0.921875
vt 0.1875 0.90625
vt 0.1875 0.90625
vt 0.1875 0.921875
vt 0.1875 0.921875
vt 0.1875 0.921875
vt 0.1875 0.921875
vt 0.1875 0.921875
vt 0.1875 0.921875
vt 0.1875 0.921875
vt 0.1875 0.921875
vn 8.74227764510112e-8 -1.2246466920853296e-16 -0.9999999999999962
vn 0.9999999999999962 1.2246467991473485e-16 8.74227764510112e-8
vn -8.74227764510112e-8 1.2246466920853296e-16 0.9999999999999962
vn -0.9999999999999962 -1.2246467991473485e-16 -8.74227764510112e-8
vn -1.2246466920853301e-16 1 -1.2246467991473485e-16
vn 1.2246466920853301e-16 -1 1.2246467991473485e-16
usemtl m_808a16fc-a598-e12b-8b6f-1f411215d780
f 92/268/67 95/267/67 93/266/67 90/265/67
f 91/272/68 92/271/68 90/270/68 89/269/68
f 96/276/69 91/275/69 89/274/69 94/273/69
f 95/280/70 96/279/70 94/278/70 93/277/70
f 94/284/71 89/283/71 90/282/71 93/281/71
f 95/288/72 92/287/72 91/286/72 96/285/72