# Made in Blockbench 4.12.4
mtllib pia_cozinha.mtl

o pia_cozinha
v 0.37499992350506706 -0.3437499999999998 0.500000076494926
v 0.37500000546392 -0.3437499999999999 -0.4374999235050702
v 0.37499992350506717 -0.4687499999999998 0.5000000764949261
v 0.3750000054639201 -0.4687499999999999 -0.4374999235050702
v -1.2499999945360734 -0.3437500000000001 -0.437500065567082
v -1.2500000764949264 -0.34375 0.49999993443291424
v -1.2499999945360734 -0.4687500000000001 -0.43750006556708193
v -1.2500000764949264 -0.46875 0.49999993443291424
vt 0.2265625 0.859375
vt 0.4296875 0.859375
vt 0.4296875 0.84375
vt 0.2265625 0.84375
vt 0.2265625 0.859375
vt 0.34375 0.859375
vt 0.34375 0.84375
vt 0.2265625 0.84375
vt 0.2265625 0.859375
vt 0.4296875 0.859375
vt 0.4296875 0.84375
vt 0.2265625 0.84375
vt 0.2265625 0.859375
vt 0.34375 0.859375
vt 0.34375 0.84375
vt 0.2265625 0.84375
vt 0.2265625 0.859375
vt 0.4296875 0.859375
vt 0.4296875 0.7421875
vt 0.2265625 0.7421875
vt 0.2265625 0.859375
vt 0.4296875 0.859375
vt 0.4296875 0.7421875
vt 0.2265625 0.7421875
vn 8.74227764510112e-8 -1.2246466920853296e-16 -0.9999999999999962
vn 0.9999999999999962 1.2246467991473485e-16 8.74227764510112e-8
vn -8.74227764510112e-8 1.2246466920853296e-16 0.9999999999999962
vn -0.9999999999999962 -1.2246467991473485e-16 -8.74227764510112e-8
vn -1.2246466920853301e-16 1 -1.2246467991473485e-16
vn 1.2246466920853301e-16 -1 1.2246467991473485e-16
usemtl m_76f3aced-e74f-5867-de26-e0c4808e5848
f 4/4/1 7/3/1 5/2/1 2/1/1
f 3/8/2 4/7/2 2/6/2 1/5/2
f 8/12/3 3/11/3 1/10/3 6/9/3
f 7/16/4 8/15/4 6/14/4 5/13/4
f 6/20/5 1/19/5 2/18/5 5/17/5
f 7/24/6 4/23/6 3/22/6 8/21/6
o cube
v -0.10156256693306775 0.6217931509017947 0.3906250646348318
v -0.10156255600522068 0.6217931509017945 0.2656250646348324
v -0.10156256693306775 0.4967931509017946 0.3906250646348319
v -0.10156255600522068 0.4967931509017946 0.2656250646348324
v -0.22656255600522018 0.6217931509017945 0.2656250537069853
v -0.22656256693306726 0.6217931509017945 0.3906250537069848
v -0.22656255600522018 0.49679315090179454 0.2656250537069853
v -0.22656256693306726 0.4967931509017946 0.3906250537069848
vt 0.015625 1
vt 0.03125 1
vt 0.03125 0.984375
vt 0.015625 0.984375
vt 0.015625 1
vt 0.03125 1
vt 0.03125 0.984375
vt 0.015625 0.984375
vt 0.015625 1
vt 0.03125 1
vt 0.03125 0.984375
vt 0.015625 0.984375
vt 0.015625 1
vt 0.03125 1
vt 0.03125 0.984375
vt 0.015625 0.984375
vt 0.015625 1
vt 0.03125 1
vt 0.03125 0.984375
vt 0.015625 0.984375
vt 0.015625 1
vt 0.03125 1
vt 0.03125 0.984375
vt 0.015625 0.984375
vn 8.74227764510112e-8 -1.2246466920853296e-16 -0.9999999999999962
vn 0.9999999999999962 1.2246467991473485e-16 8.74227764510112e-8
vn -8.74227764510112e-8 1.2246466920853296e-16 0.9999999999999962
vn -0.9999999999999962 -1.2246467991473485e-16 -8.74227764510112e-8
vn -1.2246466920853301e-16 1 -1.2246467991473485e-16
vn 1.2246466920853301e-16 -1 1.2246467991473485e-16
usemtl m_76f3aced-e74f-5867-de26-e0c4808e5848
f 12/28/7 15/27/7 13/26/7 10/25/7
f 11/32/8 12/31/8 10/30/8 9/29/8
f 16/36/9 11/35/9 9/34/9 14/33/9
f 15/40/10 16/39/10 14/38/10 13/37/10
f 14/44/11 9/43/11 10/42/11 13/41/11
f 15/48/12 12/47/12 11/46/12 16/45/12
o cube
v -1.2500000764949266 0.4375 0.4999999344329142
v -1.2499999945360738 0.4374999999999999 -0.43750006556708204
v -1.2500000764949266 -0.5 0.4999999344329143
v -1.2499999945360736 -0.5000000000000001 -0.43750006556708193
v -1.3749999945360731 0.4374999999999999 -0.4375000764949291
v -1.3750000764949262 0.4375 0.4999999235050671
v -1.3749999945360731 -0.5000000000000001 -0.437500076494929
v -1.375000076494926 -0.5 0.4999999235050672
vt 0.3125 0.859375
vt 0.328125 0.859375
vt 0.328125 0.7421875
vt 0.3125 0.7421875
vt 0.3125 0.859375
vt 0.4296875 0.859375
vt 0.4296875 0.7421875
vt 0.3125 0.7421875
vt 0.3125 0.859375
vt 0.328125 0.859375
vt 0.328125 0.7421875
vt 0.3125 0.7421875
vt 0.3125 0.859375
vt 0.4296875 0.859375
vt 0.4296875 0.7421875
vt 0.3125 0.7421875
vt 0.3125 0.859375
vt 0.328125 0.859375
vt 0.328125 0.7421875
vt 0.3125 0.7421875
vt 0.3125 0.859375
vt 0.328125 0.859375
vt 0.328125 0.7421875
vt 0.3125 0.7421875
vn 8.74227764510112e-8 -1.2246466920853296e-16 -0.9999999999999962
vn 0.9999999999999962 1.2246467991473485e-16 8.74227764510112e-8
vn -8.74227764510112e-8 1.2246466920853296e-16 0.9999999999999962
vn -0.9999999999999962 -1.2246467991473485e-16 -8.74227764510112e-8
vn -1.2246466920853301e-16 1 -1.2246467991473485e-16
vn 1.2246466920853301e-16 -1 1.2246467991473485e-16
usemtl m_76f3aced-e74f-5867-de26-e0c4808e5848
f 20/52/13 23/51/13 21/50/13 18/49/13
f 19/56/14 20/55/14 18/54/14 17/53/14
f 24/60/15 19/59/15 17/58/15 22/57/15
f 23/64/16 24/63/16 22/62/16 21/61/16
f 22/68/17 17/67/17 18/66/17 21/65/17
f 23/72/18 20/71/18 19/70/18 24/69/18
o cube
v 0.49999992350506073 0.4375000000000002 0.500000150995799
v 0.5000000054639137 0.4375000000000001 -0.4374998490041973
v 0.49999992350506084 -0.4999999999999998 0.5000001509957991
v 0.5000000054639138 -0.4999999999999999 -0.4374998490041972
v 0.3750000054639141 0.4375000000000001 -0.4374998599320444
v 0.3749999235050612 0.4375000000000002 0.5000001400679519
v 0.3750000054639142 -0.4999999999999999 -0.43749985993204427
v 0.3749999235050613 -0.4999999999999998 0.500000140067952
vt 0.2890625 0.8671875
vt 0.3046875 0.8671875
vt 0.3046875 0.75
vt 0.2890625 0.75
vt 0.2890625 0.8671875
vt 0.40625 0.8671875
vt 0.40625 0.75
vt 0.2890625 0.75
vt 0.2890625 0.8671875
vt 0.3046875 0.8671875
vt 0.3046875 0.75
vt 0.2890625 0.75
vt 0.2890625 0.8671875
vt 0.40625 0.8671875
vt 0.40625 0.75
vt 0.2890625 0.75
vt 0.2890625 0.8671875
vt 0.3046875 0.8671875
vt 0.3046875 0.75
vt 0.2890625 0.75
vt 0.2890625 0.8671875
vt 0.3046875 0.8671875
vt 0.3046875 0.75
vt 0.2890625 0.75
vn 8.74227764510112e-8 -1.2246466920853296e-16 -0.9999999999999962
vn 0.9999999999999962 1.2246467991473485e-16 8.74227764510112e-8
vn -8.74227764510112e-8 1.2246466920853296e-16 0.9999999999999962
vn -0.9999999999999962 -1.2246467991473485e-16 -8.74227764510112e-8
vn -1.2246466920853301e-16 1 -1.2246467991473485e-16
vn 1.2246466920853301e-16 -1 1.2246467991473485e-16
usemtl m_76f3aced-e74f-5867-de26-e0c4808e5848
f 28/76/19 31/75/19 29/74/19 26/73/19
f 27/80/20 28/79/20 26/78/20 25/77/20
f 32/84/21 27/83/21 25/82/21 30/81/21
f 31/88/22 32/87/22 30/86/22 29/85/22
f 30/92/23 25/91/23 26/90/23 29/89/23
f 31/96/24 28/95/24 27/94/24 32/93/24
o cube
v 0.37500000273195544 0.4375000000000001 -0.4062498937027481
v 0.37500000273195544 0.4375000000000001 -0.4062498937027481
v 0.37500000273195544 -0.3749999999999999 -0.406249893702748
v 0.37500000273195544 -0.3749999999999999 -0.406249893702748
v -1.2499999972680382 0.4374999999999999 -0.4062500357647598
v -1.2499999972680382 0.4374999999999999 -0.4062500357647598
v -1.2499999972680382 -0.3750000000000001 -0.4062500357647597
v -1.2499999972680382 -0.3750000000000001 -0.4062500357647597
vt 0.203125 0.734375
vt 0.40625 0.734375
vt 0.40625 0.6328125
vt 0.203125 0.6328125
vt 0.203125 0.734375
vt 0.203125 0.734375
vt 0.203125 0.6328125
vt 0.203125 0.6328125
vt 0 0.734375
vt 0.203125 0.734375
vt 0.203125 0.6328125
vt 0 0.6328125
vt 0 0.734375
vt 0 0.734375
vt 0 0.6328125
vt 0 0.6328125
vt 0 0.734375
vt 0.203125 0.734375
vt 0.203125 0.734375
vt 0 0.734375
vt 0.203125 0.734375
vt 0.40625 0.734375
vt 0.40625 0.734375
vt 0.203125 0.734375
vn 8.74227764510112e-8 -1.2246466920853296e-16 -0.9999999999999962
vn 0.9999999999999962 1.2246467991473485e-16 8.74227764510112e-8
vn -8.74227764510112e-8 1.2246466920853296e-16 0.9999999999999962
vn -0.9999999999999962 -1.2246467991473485e-16 -8.74227764510112e-8
vn -1.2246466920853301e-16 1 -1.2246467991473485e-16
vn 1.2246466920853301e-16 -1 1.2246467991473485e-16
usemtl m_76f3aced-e74f-5867-de26-e0c4808e5848
f 36/100/25 39/99/25 37/98/25 34/97/25
f 35/104/26 36/103/26 34/102/26 33/101/26
f 40/108/27 35/107/27 33/106/27 38/105/27
f 39/112/28 40/111/28 38/110/28 37/109/28
f 38/116/29 33/115/29 34/114/29 37/113/29
f 39/120/30 36/119/30 35/118/30 40/117/30
o cube
v 0.5624999831097085 0.5000000000000002 0.5000001189637339
v 0.5625000705324851 0.5000000000000001 -0.4999998810362622
v 0.5624999831097085 0.4375000000000002 0.5000001189637339
v 0.5625000705324851 0.4375000000000001 -0.4999998810362622
v -1.437499929467507 0.4999999999999999 -0.5000000558818151
v -1.4375000168902834 0.5 0.4999999441181809
v -1.437499929467507 0.4374999999999999 -0.5000000558818151
v -1.4375000168902834 0.4375 0.4999999441181809
vt 0.125 0.875
vt -0.125 0.875
vt -0.125 0.8671875
vt 0.125 0.8671875
vt 0 0.875
vt -0.125 0.875
vt -0.125 0.8671875
vt 0 0.8671875
vt 0.5 0.875
vt 0.25 0.875
vt 0.25 0.8671875
vt 0.5 0.8671875
vt 0.375 0.875
vt 0.25 0.875
vt 0.25 0.8671875
vt 0.375 0.8671875
vt 0.125 0.875
vt 0.375 0.875
vt 0.375 1
vt 0.125 1
vt 0.375 1
vt 0.625 1
vt 0.625 0.875
vt 0.375 0.875
vn 8.74227764510112e-8 -1.2246466920853296e-16 -0.9999999999999962
vn 0.9999999999999962 1.2246467991473485e-16 8.74227764510112e-8
vn -8.74227764510112e-8 1.2246466920853296e-16 0.9999999999999962
vn -0.9999999999999962 -1.2246467991473485e-16 -8.74227764510112e-8
vn -1.2246466920853301e-16 1 -1.2246467991473485e-16
vn 1.2246466920853301e-16 -1 1.2246467991473485e-16
usemtl m_76f3aced-e74f-5867-de26-e0c4808e5848
f 44/124/31 47/123/31 45/122/31 42/121/31
f 43/128/32 44/127/32 42/126/32 41/125/32
f 48/132/33 43/131/33 41/130/33 46/129/33
f 47/136/34 48/135/34 46/134/34 45/133/34
f 46/140/35 41/139/35 42/138/35 45/137/35
f 47/144/36 44/143/36 43/142/36 48/141/36
o cube
v -0.7499999567871269 0.203125 -0.1874999995039478
v -0.7500000059624388 0.20312500000000006 0.37500000049605
v -0.7499999567871269 0.453125 -0.18749999950394786
v -0.7500000059624388 0.45312500000000006 0.3750000004960499
v -0.06250000596244143 0.20312500000000014 0.37500006059920876
v -0.06249995678712972 0.20312500000000008 -0.18749993940078902
v -0.06250000596244143 0.4531250000000001 0.37500006059920876
v -0.06249995678712972 0.4531250000000001 -0.18749993940078902
vt 0.0859375 0.5
vt 0 0.5
vt 0 0.46875
vt 0.0859375 0.46875
vt 0.15625 0.5
vt 0.0859375 0.5
vt 0.0859375 0.46875
vt 0.15625 0.46875
vt 0.2421875 0.5
vt 0.15625 0.5
vt 0.15625 0.46875
vt 0.2421875 0.46875
vt 0.3125 0.5
vt 0.2421875 0.5
vt 0.2421875 0.46875
vt 0.3125 0.46875
vt 0.2421875 0.5703125
vt 0.15625 0.5703125
vt 0.15625 0.5
vt 0.2421875 0.5
vt 0.15625 0.5703125
vt 0.0703125 0.5703125
vt 0.0703125 0.5
vt 0.15625 0.5
vn 8.74227764510112e-8 -1.2246466920853296e-16 -0.9999999999999962
vn 0.9999999999999962 1.2246467991473485e-16 8.74227764510112e-8
vn -8.74227764510112e-8 1.2246466920853296e-16 0.9999999999999962
vn -0.9999999999999962 -1.2246467991473485e-16 -8.74227764510112e-8
vn -1.2246466920853301e-16 1 -1.2246467991473485e-16
vn 1.2246466920853301e-16 -1 1.2246467991473485e-16
usemtl m_76f3aced-e74f-5867-de26-e0c4808e5848
f 52/148/37 55/147/37 53/146/37 50/145/37
f 51/152/38 52/151/38 50/150/38 49/149/38
f 56/156/39 51/155/39 49/154/39 54/153/39
f 55/160/40 56/159/40 54/158/40 53/157/40
f 54/164/41 49/163/41 50/162/41 53/161/41
f 55/168/42 52/167/42 51/166/42 56/165/42
o cube
v -0.6250001265377104 0.6217931509017945 0.3906250188744671
v -0.6250001156098633 0.6217931509017945 0.26562501887446754
v -0.6250001265377104 0.49679315090179454 0.3906250188744671
v -0.6250001156098633 0.49679315090179454 0.2656250188744676
v -0.7500001156098628 0.6217931509017945 0.26562500794662053
v -0.7500001265377099 0.6217931509017945 0.39062500794662003
v -0.7500001156098628 0.4967931509017945 0.26562500794662053
v -0.7500001265377099 0.49679315090179454 0.39062500794662003
vt 0.0234375 1
vt 0.0390625 1
vt 0.0390625 0.984375
vt 0.0234375 0.984375
vt 0.0234375 1
vt 0.0390625 1
vt 0.0390625 0.984375
vt 0.0234375 0.984375
vt 0.0234375 1
vt 0.0390625 1
vt 0.0390625 0.984375
vt 0.0234375 0.984375
vt 0.0234375 1
vt 0.0390625 1
vt 0.0390625 0.984375
vt 0.0234375 0.984375
vt 0.0234375 1
vt 0.0390625 1
vt 0.0390625 0.984375
vt 0.0234375 0.984375
vt 0.0234375 1
vt 0.0390625 1
vt 0.0390625 0.984375
vt 0.0234375 0.984375
vn 8.74227764510112e-8 -1.2246466920853296e-16 -0.9999999999999962
vn 0.9999999999999962 1.2246467991473485e-16 8.74227764510112e-8
vn -8.74227764510112e-8 1.2246466920853296e-16 0.9999999999999962
vn -0.9999999999999962 -1.2246467991473485e-16 -8.74227764510112e-8
vn -1.2246466920853301e-16 1 -1.2246467991473485e-16
vn 1.2246466920853301e-16 -1 1.2246467991473485e-16
usemtl m_76f3aced-e74f-5867-de26-e0c4808e5848
f 60/172/43 63/171/43 61/170/43 58/169/43
f 59/176/44 60/175/44 58/174/44 57/173/44
f 64/180/45 59/179/45 57/178/45 62/177/45
f 63/184/46 64/183/46 62/182/46 61/181/46
f 62/188/47 57/187/47 58/186/47 61/185/47
f 63/192/48 60/191/48 59/190/48 64/189/48
o cube
v -0.37500006827828763 0.7756624221801759 0.4060125758253812
v -0.37500004095867 0.7756624221801759 0.09351257582538239
v -0.37500006827828763 0.6506624221801759 0.4060125758253812
v -0.37500004095867 0.6506624221801759 0.09351257582538242
v -0.5000000409586695 0.7756624221801759 0.09351256489753534
v -0.5000000682782871 0.7756624221801759 0.4060125648975341
v -0.5000000409586695 0.6506624221801759 0.09351256489753534
v -0.5000000682782871 0.6506624221801759 0.4060125648975341
vt 0.1640625 0.8984375
vt 0.1484375 0.8984375
vt 0.1484375 0.9140625
vt 0.1640625 0.9140625
vt 0.1640625 0.8984375
vt 0.125 0.8984375
vt 0.125 0.9140625
vt 0.1640625 0.9140625
vt 0.2109375 0.8984375
vt 0.1953125 0.8984375
vt 0.1953125 0.9140625
vt 0.2109375 0.9140625
vt 0.171875 0.8984375
vt 0.1328125 0.8984375
vt 0.1328125 0.9140625
vt 0.171875 0.9140625
vt 0.1640625 0.9375
vt 0.1796875 0.9375
vt 0.1796875 0.8984375
vt 0.1640625 0.8984375
vt 0.171875 0.8984375
vt 0.1875 0.8984375
vt 0.1875 0.9375
vt 0.171875 0.9375
vn 8.74227764510112e-8 -1.2246466920853296e-16 -0.9999999999999962
vn 0.9999999999999962 1.2246467991473485e-16 8.74227764510112e-8
vn -8.74227764510112e-8 1.2246466920853296e-16 0.9999999999999962
vn -0.9999999999999962 -1.2246467991473485e-16 -8.74227764510112e-8
vn -1.2246466920853301e-16 1 -1.2246467991473485e-16
vn 1.2246466920853301e-16 -1 1.2246467991473485e-16
usemtl m_76f3aced-e74f-5867-de26-e0c4808e5848
f 68/196/49 71/195/49 69/194/49 66/193/49
f 67/200/50 68/199/50 66/198/50 65/197/50
f 72/204/51 67/203/51 65/202/51 70/201/51
f 71/208/52 72/207/52 70/206/52 69/205/52
f 70/212/53 65/211/53 66/210/53 69/209/53
f 71/216/54 68/215/54 67/214/54 72/213/54
o cube
v -0.3750000723969901 0.6718750000000001 0.45312504073016613
v -0.3750000614691431 0.6718750000000001 0.32812504073016663
v -0.37500007239699007 0.4843750000000001 0.45312504073016613
v -0.37500006146914305 0.4843750000000001 0.32812504073016663
v -0.5000000614691426 0.6718750000000001 0.32812502980231956
v -0.5000000723969896 0.6718750000000001 0.45312502980231906
v -0.5000000614691426 0.4843750000000001 0.32812502980231956
v -0.5000000723969896 0.4843750000000001 0.45312502980231906
vt 0.15625 0.921875
vt 0.140625 0.921875
vt 0.140625 0.9453125
vt 0.15625 0.9453125
vt 0.1484375 0.921875
vt 0.1328125 0.921875
vt 0.1328125 0.9453125
vt 0.1484375 0.9453125
vt 0.1484375 0.9140625
vt 0.1328125 0.9140625
vt 0.1328125 0.9375
vt 0.1484375 0.9375
vt 0.1484375 0.921875
vt 0.1328125 0.921875
vt 0.1328125 0.9453125
vt 0.1484375 0.9453125
vt 0.0390625 0.953125
vt 0.0546875 0.953125
vt 0.0546875 0.9375
vt 0.0390625 0.9375
vt 0.0390625 0.9296875
vt 0.0546875 0.9296875
vt 0.0546875 0.9453125
vt 0.0390625 0.9453125
vn 8.74227764510112e-8 -1.2246466920853296e-16 -0.9999999999999962
vn 0.9999999999999962 1.2246467991473485e-16 8.74227764510112e-8
vn -8.74227764510112e-8 1.2246466920853296e-16 0.9999999999999962
vn -0.9999999999999962 -1.2246467991473485e-16 -8.74227764510112e-8
vn -1.2246466920853301e-16 1 -1.2246467991473485e-16
vn 1.2246466920853301e-16 -1 1.2246467991473485e-16
usemtl m_76f3aced-e74f-5867-de26-e0c4808e5848
f 76/220/55 79/219/55 77/218/55 74/217/55
f 75/224/56 76/223/56 74/222/56 73/221/56
f 80/228/57 75/227/57 73/226/57 78/225/57
f 79/232/58 80/231/58 78/230/58 77/229/58
f 78/236/59 73/235/59 74/234/59 77/233/59
f 79/240/60 76/239/60 75/238/60 80/237/60