# Made in Blockbench 4.12.4
mtllib portao_garagem_vovo_opened.mtl

o Block
v 1.5 2.5 0
v 1.5 2.5 0
v 1.5 -0.5 0
v 1.5 -0.5 0
v 1.4626 2.5 1.4962
v 1.4626 2.5 1.4962
v 1.4626 -0.5 1.4962
v 1.4626 -0.5 1.4962
vt 0.34375 1
vt 0.71875 1
vt 0.71875 0.25
vt 0.34375 0.25
vn 0.9962 0 0.0872
usemtl m_62c2fd34-eab0-7580-061c-3cf7ecd3b05e
f 8/4/1 3/3/1 1/2/1 6/1/1

o Block
v -1.4626 2.5 1.4962
v -1.4626 2.5 1.4962
v -1.4626 -0.5 1.4962
v -1.4626 -0.5 1.4962
v -1.5 2.5 0
v -1.5 2.5 0
v -1.5 -0.5 0
v -1.5 -0.5 0
vt 0.375 1
vt 0.75 1
vt 0.75 0.25
vt 0.375 0.25
vn -0.9962 0 0.0872
usemtl m_62c2fd34-eab0-7580-061c-3cf7ecd3b05e
f 16/8/2 11/7/2 9/6/2 14/5/2
