# Made in Blockbench 4.12.4
mtllib porta_rolante_opened.mtl

o cube
v 1.5 2.5625 1.3877787807814457e-17
v 1.5 2.4375 -1.3877787807814457e-17
v 1.5 2.562499999999999 3
v 1.5 2.437499999999999 3
v -1.5 2.4375 -1.3877787807814457e-17
v -1.5 2.5625 1.3877787807814457e-17
v -1.5 2.437499999999999 3
v -1.5 2.562499999999999 3
vt 0 1
vt 1 1
vt 1 0
vt 0 0
vt 0 1
vt 0.041666666666666664 1
vt 0.041666666666666664 0
vt 0 0
vt 0 1
vt 1 1
vt 1 0
vt 0 0
vt 0 1
vt 0.041666666666666664 1
vt 0.041666666666666664 0
vt 0 0
vt 0 1
vt 1 1
vt 1 0.9583333333333334
vt 0 0.9583333333333334
vt 0 1
vt 1 1
vt 1 0.9583333333333334
vt 0 0.9583333333333334
vn 0 -1 -2.220446049250313e-16
vn 1 0 0
vn 0 1 2.220446049250313e-16
vn -1 0 0
vn 0 2.220446049250313e-16 -1
vn 0 -2.220446049250313e-16 1
usemtl m_c69d5045-3e76-4571-5d09-53591746e9ed
f 4/4/1 7/3/1 5/2/1 2/1/1
f 3/8/2 4/7/2 2/6/2 1/5/2
f 8/12/3 3/11/3 1/10/3 6/9/3
f 7/16/4 8/15/4 6/14/4 5/13/4
f 6/20/5 1/19/5 2/18/5 5/17/5
f 7/24/6 4/23/6 3/22/6 8/21/6