# Made in Blockbench 4.12.4
mtllib rua_cacamba_entulho.mtl

o Block1
v -1.2497383141704903 0.75 1.0003270195762486
v 1.2502616002581552 0.75 0.9996729119666677
v -1.2497383141704903 -0.5 1.0003270195762486
v 1.2502616002581552 -0.5 0.9996729119666677
v 1.2497383141704903 0.75 -1.0003270195762486
v -1.2502616002581552 0.75 -0.9996729119666677
v 1.2497383141704903 -0.5 -1.0003270195762486
v -1.2502616002581552 -0.5 -0.9996729119666677
vt 0.25 0.3125
vt 0.5 0.3125
vt 0.5 0
vt 0.25 0
vt 0 1
vt 0.3125 1
vt 0.3125 0.6875
vt 0 0.6875
vt 0.25 0.671875
vt 0.5 0.671875
vt 0.5 0.359375
vt 0.25 0.359375
vt 0.3203125 1
vt 0.6328125 1
vt 0.6328125 0.6875
vt 0.3203125 0.6875
vt 0.75 0.625
vt 1 0.625
vt 1 0
vt 0.75 0
vt 0.515625 0.625
vt 0.765625 0.625
vt 0.765625 0
vt 0.515625 0
vn 0.9999999657714582 0 -0.00026164304383236026
vn 0.00026164304383236026 0 0.9999999657714582
vn -0.9999999657714582 0 0.00026164304383236026
vn -0.00026164304383236026 0 -0.9999999657714582
vn 0 1 0
vn 0 -1 0
usemtl m_edd83241-a519-72f8-980c-c16bd11ffd02
f 4/4/1 7/3/1 5/2/1 2/1/1
f 3/8/2 4/7/2 2/6/2 1/5/2
f 8/12/3 3/11/3 1/10/3 6/9/3
f 7/16/4 8/15/4 6/14/4 5/13/4
f 6/20/5 1/19/5 2/18/5 5/17/5
f 7/24/6 4/23/6 3/22/6 8/21/6
o entulho
v -1.2497383141704903 0.375 1.0003270195762486
v 1.2502616002581552 0.375 0.9996729119666677
v -1.2497383141704903 0.375 1.0003270195762486
v 1.2502616002581552 0.375 0.9996729119666677
v 1.2497383141704903 0.375 -1.0003270195762486
v -1.2502616002581552 0.375 -0.9996729119666677
v 1.2497383141704903 0.375 -1.0003270195762486
v -1.2502616002581552 0.375 -0.9996729119666677
vt 0.5625 0.046875
vt 0.8125 0.046875
vt 0.8125 0.046875
vt 0.5625 0.046875
vt 0.25 0.046875
vt 0.5625 0.046875
vt 0.5625 0.046875
vt 0.25 0.046875
vt 0 0.046875
vt 0.25 0.046875
vt 0.25 0.046875
vt 0 0.046875
vt -0.3125 0.046875
vt 0 0.046875
vt 0 0.046875
vt -0.3125 0.046875
vt 0 0.671875
vt 0.25 0.671875
vt 0.25 0.046875
vt 0 0.046875
vt 0.75 0.625
vt 1 0.625
vt 1 0
vt 0.75 0
vn 0.9999999657714582 0 -0.00026164304383236026
vn 0.00026164304383236026 0 0.9999999657714582
vn -0.9999999657714582 0 0.00026164304383236026
vn -0.00026164304383236026 0 -0.9999999657714582
vn 0 1 0
vn 0 -1 0
usemtl m_edd83241-a519-72f8-980c-c16bd11ffd02
f 12/28/7 15/27/7 13/26/7 10/25/7
f 11/32/8 12/31/8 10/30/8 9/29/8
f 16/36/9 11/35/9 9/34/9 14/33/9
f 15/40/10 16/39/10 14/38/10 13/37/10
f 14/44/11 9/43/11 10/42/11 13/41/11
f 15/48/12 12/47/12 11/46/12 16/45/12
o entulho
v -1.0309964980031037 0.875 0.9690197862300522
v 0.15650346135050297 0.875 0.9687090851155014
v -1.0309964980031037 0.25 0.9690197862300522
v 0.15650346135050297 0.25 0.9687090851155014
v 0.15599652795307772 0.875 -0.968790848566699
v -1.031503431400529 0.875 -0.968480147452148
v 0.15599652795307772 0.25 -0.968790848566699
v -1.031503431400529 0.25 -0.968480147452148
vt 0 0.34375
vt 0.2421875 0.34375
vt 0.2421875 0.1875
vt 0 0.1875
vt 0 0.34375
vt 0.1484375 0.34375
vt 0.1484375 0.1875
vt 0 0.1875
vt 0 0.34375
vt 0.2421875 0.34375
vt 0.2421875 0.1875
vt 0 0.1875
vt 0 0.34375
vt 0.1484375 0.34375
vt 0.1484375 0.1875
vt 0 0.1875
vt 0 0.34375
vt 0.2421875 0.34375
vt 0.2421875 0.046875
vt 0 0.046875
vt 0 0.34375
vt 0.2421875 0.34375
vt 0.2421875 0.046875
vt 0 0.046875
vn 0.9999999657714582 0 -0.00026164304383236026
vn 0.00026164304383236026 0 0.9999999657714582
vn -0.9999999657714582 0 0.00026164304383236026
vn -0.00026164304383236026 0 -0.9999999657714582
vn 0 1 0
vn 0 -1 0
usemtl m_edd83241-a519-72f8-980c-c16bd11ffd02
f 20/52/13 23/51/13 21/50/13 18/49/13
f 19/56/14 20/55/14 18/54/14 17/53/14
f 24/60/15 19/59/15 17/58/15 22/57/15
f 23/64/16 24/63/16 22/62/16 21/61/16
f 22/68/17 17/67/17 18/66/17 21/65/17
f 23/72/18 20/71/18 19/70/18 24/69/18