# Made in Blockbench 4.12.4
mtllib tanque_externo.mtl

o tanque
v 0.43749991818767675 0.43750000000000017 0.468750169078764
v 0.43750008181229394 0.43750000000000006 -0.4687498309212218
v 0.43749991818767675 0.31250000000000017 0.468750169078764
v 0.43750008181229394 0.31250000000000006 -0.4687498309212218
v -1.4999999181876769 0.43749999999999983 -0.46875016907876416
v -1.5000000818122938 0.43749999999999994 0.46874983092122163
v -1.4999999181876769 0.31249999999999983 -0.4687501690787641
v -1.5000000818122938 0.31249999999999994 0.4687498309212217
vt 0.1171875 0.8828125
vt 0.359375 0.8828125
vt 0.359375 0.8984375
vt 0.1171875 0.8984375
vt 0.140625 0.890625
vt 0.2578125 0.890625
vt 0.2578125 0.90625
vt 0.140625 0.90625
vt 0.1171875 0.890625
vt 0.359375 0.890625
vt 0.359375 0.90625
vt 0.1171875 0.90625
vt 0.359375 0.8828125
vt 0.4765625 0.8828125
vt 0.4765625 0.8984375
vt 0.359375 0.8984375
vt 0.359375 1
vt 0.1171875 1
vt 0.1171875 0.8828125
vt 0.359375 0.8828125
vt 0.6015625 0.8828125
vt 0.359375 0.8828125
vt 0.359375 1
vt 0.6015625 1
vn 1.7453292507696738e-7 -1.224646585406165e-16 -0.9999999999999849
vn 0.9999999999999849 1.2246467991473347e-16 1.7453292507696738e-7
vn -1.7453292507696738e-7 1.224646585406165e-16 0.9999999999999849
vn -0.9999999999999849 -1.2246467991473347e-16 -1.7453292507696738e-7
vn -1.224646585406165e-16 1 -1.2246467991473342e-16
vn 1.224646585406165e-16 -1 1.2246467991473342e-16
usemtl m_f4af86ab-1d26-71ca-ccf6-5589e59caf01
f 4/4/1 7/3/1 5/2/1 2/1/1
f 3/8/2 4/7/2 2/6/2 1/5/2
f 8/12/3 3/11/3 1/10/3 6/9/3
f 7/16/4 8/15/4 6/14/4 5/13/4
f 6/20/5 1/19/5 2/18/5 5/17/5
f 7/24/6 4/23/6 3/22/6 8/21/6
o sabao
v -0.9521875846540724 0.9140625 0.22313106425350768
v -0.9043521354525123 0.9140625 0.10764613103845591
v -0.9521875846540724 0.41406250000000006 0.22313106425350773
v -0.9043521354525121 0.41406250000000006 0.10764613103845597
v -1.2508069350976674 0.9140625 -0.03586021656622452
v -1.2986423842992276 0.9140625 0.07962471664882723
v -1.2508069350976674 0.4140625 -0.03586021656622446
v -1.2986423842992276 0.4140625 0.07962471664882728
vt 0.3125 0.7578125
vt 0.359375 0.7578125
vt 0.359375 0.6953125
vt 0.3125 0.6953125
vt 0.296875 0.7578125
vt 0.3125 0.7578125
vt 0.3125 0.6953125
vt 0.296875 0.6953125
vt 0.375 0.7578125
vt 0.421875 0.7578125
vt 0.421875 0.6953125
vt 0.375 0.6953125
vt 0.359375 0.7578125
vt 0.375 0.7578125
vt 0.375 0.6953125
vt 0.359375 0.6953125
vt 0.359375 0.7578125
vt 0.3125 0.7578125
vt 0.3125 0.7734375
vt 0.359375 0.7734375
vt 0.40625 0.7734375
vt 0.359375 0.7734375
vt 0.359375 0.7578125
vt 0.40625 0.7578125
vn 0.38268359361248117 -6.627738742839686e-17 -0.9238794657204139
vn 0.9238794657204139 1.6000780710251013e-16 0.38268359361248117
vn -0.38268359361248117 6.627738742839686e-17 0.9238794657204139
vn -0.9238794657204139 -1.6000780710251013e-16 -0.38268359361248117
vn -1.224646585406165e-16 1 -1.2246467991473342e-16
vn 1.224646585406165e-16 -1 1.2246467991473342e-16
usemtl m_f4af86ab-1d26-71ca-ccf6-5589e59caf01
f 12/28/7 15/27/7 13/26/7 10/25/7
f 11/32/8 12/31/8 10/30/8 9/29/8
f 16/36/9 11/35/9 9/34/9 14/33/9
f 15/40/10 16/39/10 14/38/10 13/37/10
f 14/44/11 9/43/11 10/42/11 13/41/11
f 15/48/12 12/47/12 11/46/12 16/45/12
o pia
v -0.18750002999785165 0.4359375000000001 0.1718750599956903
v -0.18749992091477352 0.4359375 -0.45312494000430026
v -0.18750002999785165 0.18593750000000006 0.17187505999569036
v -0.18749992091477352 0.18593749999999998 -0.4531249400043002
v -0.8124999209147641 0.4359374999999999 -0.45312504908737844
v -0.8125000299978422 0.4359375 0.17187495091261212
v -0.8124999209147641 0.18593749999999992 -0.4531250490873784
v -0.8125000299978422 0.18593749999999998 0.17187495091261218
vt 0.3828125 0.8046875
vt 0.4609375 0.8046875
vt 0.4609375 0.7734375
vt 0.3828125 0.7734375
vt 0.3046875 0.8046875
vt 0.3828125 0.8046875
vt 0.3828125 0.7734375
vt 0.3046875 0.7734375
vt 0.2265625 0.8046875
vt 0.3046875 0.8046875
vt 0.3046875 0.7734375
vt 0.2265625 0.7734375
vt 0.1484375 0.8046875
vt 0.2265625 0.8046875
vt 0.2265625 0.7734375
vt 0.1484375 0.7734375
vt 0.2265625 0.8828125
vt 0.3046875 0.8828125
vt 0.3046875 0.8046875
vt 0.2265625 0.8046875
vt 0.3046875 0.8828125
vt 0.3828125 0.8828125
vt 0.3828125 0.8046875
vt 0.3046875 0.8046875
vn 1.7453292507696738e-7 -1.224646585406165e-16 -0.9999999999999849
vn 0.9999999999999849 1.2246467991473347e-16 1.7453292507696738e-7
vn -1.7453292507696738e-7 1.224646585406165e-16 0.9999999999999849
vn -0.9999999999999849 -1.2246467991473347e-16 -1.7453292507696738e-7
vn -1.224646585406165e-16 1 -1.2246467991473342e-16
vn 1.224646585406165e-16 -1 1.2246467991473342e-16
usemtl m_f4af86ab-1d26-71ca-ccf6-5589e59caf01
f 20/52/13 23/51/13 21/50/13 18/49/13
f 19/56/14 20/55/14 18/54/14 17/53/14
f 24/60/15 19/59/15 17/58/15 22/57/15
f 23/64/16 24/63/16 22/62/16 21/61/16
f 22/68/17 17/67/17 18/66/17 21/65/17
f 23/72/18 20/71/18 19/70/18 24/69/18
o escova
v 0.3581526625388415 0.5703125000000001 -0.036967803033633194
v 0.31031725364913065 0.5703125000000001 -0.15245275294639965
v 0.3581526625388415 0.5078125000000001 -0.03696780303363318
v 0.31031725364913065 0.5078125000000001 -0.15245275294639965
v 0.07934735382359773 0.5703125000000001 -0.05678193516697796
v 0.12718276271330856 0.5703125000000001 0.0587030147457885
v 0.07934735382359773 0.5078125000000001 -0.056781935166977944
v 0.12718276271330856 0.5078125000000001 0.0587030147457885
vt 0.015625 0.9609375
vt 0.046875 0.9609375
vt 0.046875 0.953125
vt 0.015625 0.953125
vt 0 0.9609375
vt 0.015625 0.9609375
vt 0.015625 0.953125
vt 0 0.953125
vt 0.0625 0.9609375
vt 0.09375 0.9609375
vt 0.09375 0.953125
vt 0.0625 0.953125
vt 0.046875 0.9609375
vt 0.0625 0.9609375
vt 0.0625 0.953125
vt 0.046875 0.953125
vt 0.046875 0.9609375
vt 0.015625 0.9609375
vt 0.015625 0.9765625
vt 0.046875 0.9765625
vt 0.078125 0.9765625
vt 0.046875 0.9765625
vt 0.046875 0.9609375
vt 0.078125 0.9609375
vn -0.38268327111768674 -1.600077955349214e-16 -0.9238795993021316
vn 0.9238795993021316 6.627741535502652e-17 -0.38268327111768674
vn 0.38268327111768674 1.600077955349214e-16 0.9238795993021316
vn -0.9238795993021316 -6.627741535502652e-17 0.38268327111768674
vn -1.224646585406165e-16 1 -1.224646799147334e-16
vn 1.224646585406165e-16 -1 1.224646799147334e-16
usemtl m_f4af86ab-1d26-71ca-ccf6-5589e59caf01
f 28/76/19 31/75/19 29/74/19 26/73/19
f 27/80/20 28/79/20 26/78/20 25/77/20
f 32/84/21 27/83/21 25/82/21 30/81/21
f 31/88/22 32/87/22 30/86/22 29/85/22
f 30/92/23 25/91/23 26/90/23 29/89/23
f 31/96/24 28/95/24 27/94/24 32/93/24
o Block3
v -0.4368750590139469 0.625625 0.3381250164715396
v -0.4368750153807156 0.625625 0.08812501647154339
v -0.4368750590139469 0.563125 0.33812501647153964
v -0.4368750153807156 0.563125 0.08812501647154339
v -0.4993750153807147 0.625625 0.08812500556323558
v -0.49937505901394597 0.625625 0.3381250055632318
v -0.49937501538071466 0.563125 0.08812500556323558
v -0.49937505901394597 0.563125 0.3381250055632318
vt 0.015625 0.921875
vt 0.0078125 0.921875
vt 0.0078125 0.9296875
vt 0.015625 0.9296875
vt 0 0.921875
vt -0.03125 0.921875
vt -0.03125 0.9296875
vt 0 0.9296875
vt 0.0234375 0.9296875
vt 0.015625 0.9296875
vt 0.015625 0.9375
vt 0.0234375 0.9375
vt 0.015625 0.921875
vt -0.015625 0.921875
vt -0.015625 0.9296875
vt 0.015625 0.9296875
vt 0.0234375 0.921875
vt 0.03125 0.921875
vt 0.03125 0.890625
vt 0.0234375 0.890625
vt 0.0078125 0.921875
vt 0.015625 0.921875
vt 0.015625 0.953125
vt 0.0078125 0.953125
vn 1.7453292507696738e-7 -1.224646585406165e-16 -0.9999999999999849
vn 0.9999999999999849 1.2246467991473347e-16 1.7453292507696738e-7
vn -1.7453292507696738e-7 1.224646585406165e-16 0.9999999999999849
vn -0.9999999999999849 -1.2246467991473347e-16 -1.7453292507696738e-7
vn -1.224646585406165e-16 1 -1.2246467991473342e-16
vn 1.224646585406165e-16 -1 1.2246467991473342e-16
usemtl m_f4af86ab-1d26-71ca-ccf6-5589e59caf01
f 36/100/25 39/99/25 37/98/25 34/97/25
f 35/104/26 36/103/26 34/102/26 33/101/26
f 40/108/27 35/107/27 33/106/27 38/105/27
f 39/112/28 40/111/28 38/110/28 37/109/28
f 38/116/29 33/115/29 34/114/29 37/113/29
f 39/120/30 36/119/30 35/118/30 40/117/30
o Block2
v -0.21875006272277472 0.5703125000000001 0.35937505454153357
v -0.21875004090615907 0.5703125 0.23437505454153545
v -0.2187500627227747 0.44531250000000006 0.35937505454153357
v -0.21875004090615907 0.44531250000000006 0.23437505454153545
v -0.3437500409061572 0.5703125 0.23437503272491983
v -0.3437500627227728 0.5703125 0.35937503272491794
v -0.3437500409061572 0.44531250000000006 0.23437503272491983
v -0.3437500627227728 0.44531250000000006 0.35937503272491794
vt 0.015625 0.9375
vt 0.03125 0.9375
vt 0.03125 0.921875
vt 0.015625 0.921875
vt 0 0.9375
vt 0.015625 0.9375
vt 0.015625 0.921875
vt 0 0.921875
vt 0.046875 0.9375
vt 0.0625 0.9375
vt 0.0625 0.921875
vt 0.046875 0.921875
vt 0.03125 0.9375
vt 0.046875 0.9375
vt 0.046875 0.921875
vt 0.03125 0.921875
vt 0.03125 0.9375
vt 0.015625 0.9375
vt 0.015625 0.953125
vt 0.03125 0.953125
vt 0.046875 0.953125
vt 0.03125 0.953125
vt 0.03125 0.9375
vt 0.046875 0.9375
vn 1.7453292507696738e-7 -1.224646585406165e-16 -0.9999999999999849
vn 0.9999999999999849 1.2246467991473347e-16 1.7453292507696738e-7
vn -1.7453292507696738e-7 1.224646585406165e-16 0.9999999999999849
vn -0.9999999999999849 -1.2246467991473347e-16 -1.7453292507696738e-7
vn -1.224646585406165e-16 1 -1.2246467991473342e-16
vn 1.224646585406165e-16 -1 1.2246467991473342e-16
usemtl m_f4af86ab-1d26-71ca-ccf6-5589e59caf01
f 44/124/31 47/123/31 45/122/31 42/121/31
f 43/128/32 44/127/32 42/126/32 41/125/32
f 48/132/33 43/131/33 41/130/33 46/129/33
f 47/136/34 48/135/34 46/134/34 45/133/34
f 46/140/35 41/139/35 42/138/35 45/137/35
f 47/144/36 44/143/36 43/142/36 48/141/36
o escova
v 0.3581526625388415 0.5078125000000001 -0.03696780303363319
v 0.31031725364913065 0.5078125000000001 -0.15245275294639962
v 0.3581526625388415 0.4453125000000001 -0.03696780303363317
v 0.31031725364913065 0.4453125000000001 -0.15245275294639962
v 0.07934735382359773 0.5078125000000001 -0.05678193516697795
v 0.12718276271330856 0.5078125000000001 0.058703014745788505
v 0.07934735382359773 0.4453125000000001 -0.05678193516697794
v 0.12718276271330856 0.4453125000000001 0.058703014745788505
vt 0.015625 0.984375
vt 0.046875 0.984375
vt 0.046875 0.9765625
vt 0.015625 0.9765625
vt 0 0.984375
vt 0.015625 0.984375
vt 0.015625 0.9765625
vt 0 0.9765625
vt 0.0625 0.984375
vt 0.09375 0.984375
vt 0.09375 0.9765625
vt 0.0625 0.9765625
vt 0.046875 0.984375
vt 0.0625 0.984375
vt 0.0625 0.9765625
vt 0.046875 0.9765625
vt 0.046875 0.984375
vt 0.015625 0.984375
vt 0.015625 1
vt 0.046875 1
vt 0.078125 1
vt 0.046875 1
vt 0.046875 0.984375
vt 0.078125 0.984375
vn -0.38268327111768674 -1.600077955349214e-16 -0.9238795993021316
vn 0.9238795993021316 6.627741535502652e-17 -0.38268327111768674
vn 0.38268327111768674 1.600077955349214e-16 0.9238795993021316
vn -0.9238795993021316 -6.627741535502652e-17 0.38268327111768674
vn -1.224646585406165e-16 1 -1.224646799147334e-16
vn 1.224646585406165e-16 -1 1.224646799147334e-16
usemtl m_f4af86ab-1d26-71ca-ccf6-5589e59caf01
f 52/148/37 55/147/37 53/146/37 50/145/37
f 51/152/38 52/151/38 50/150/38 49/149/38
f 56/156/39 51/155/39 49/154/39 54/153/39
f 55/160/40 56/159/40 54/158/40 53/157/40
f 54/164/41 49/163/41 50/162/41 53/161/41
f 55/168/42 52/167/42 51/166/42 56/165/42
o Block3
v -0.4375000627227714 0.5703125 0.3593750163624562
v -0.4375000409061558 0.5703125 0.2343750163624581
v -0.4375000627227714 0.4453125 0.3593750163624562
v -0.43750004090615574 0.4453125 0.2343750163624581
v -0.5000000409061548 0.5703125 0.2343750054541503
v -0.5000000627227704 0.5703125 0.3593750054541484
v -0.5000000409061548 0.4453125 0.2343750054541503
v -0.5000000627227704 0.4453125 0.3593750054541484
vt 0.015625 0.9375
vt 0.0234375 0.9375
vt 0.0234375 0.921875
vt 0.015625 0.921875
vt 0 0.9375
vt 0.015625 0.9375
vt 0.015625 0.921875
vt 0 0.921875
vt 0.046875 0.9375
vt 0.0546875 0.9375
vt 0.0546875 0.921875
vt 0.046875 0.921875
vt 0.03125 0.9375
vt 0.046875 0.9375
vt 0.046875 0.921875
vt 0.03125 0.921875
vt 0.03125 0.9375
vt 0.0234375 0.9375
vt 0.0234375 0.953125
vt 0.03125 0.953125
vt 0.046875 0.953125
vt 0.0390625 0.953125
vt 0.0390625 0.9375
vt 0.046875 0.9375
vn 1.7453292507696738e-7 -1.224646585406165e-16 -0.9999999999999849
vn 0.9999999999999849 1.2246467991473347e-16 1.7453292507696738e-7
vn -1.7453292507696738e-7 1.224646585406165e-16 0.9999999999999849
vn -0.9999999999999849 -1.2246467991473347e-16 -1.7453292507696738e-7
vn -1.224646585406165e-16 1 -1.2246467991473342e-16
vn 1.224646585406165e-16 -1 1.2246467991473342e-16
usemtl m_f4af86ab-1d26-71ca-ccf6-5589e59caf01
f 60/172/43 63/171/43 61/170/43 58/169/43
f 59/176/44 60/175/44 58/174/44 57/173/44
f 64/180/45 59/179/45 57/178/45 62/177/45
f 63/184/46 64/183/46 62/182/46 61/181/46
f 62/188/47 57/187/47 58/186/47 61/185/47
f 63/192/48 60/191/48 59/190/48 64/189/48
o Block
v -1.343750089993527 0.37499999999999994 0.5156248581919906
v -1.3437499263689099 0.37499999999999983 -0.42187514180799535
v -1.343750089993527 -0.5 0.5156248581919907
v -1.3437499263689099 -0.5000000000000002 -0.42187514180799524
v -1.4687499263689079 0.37499999999999983 -0.42187516362461097
v -1.468750089993525 0.37499999999999994 0.5156248363753749
v -1.4687499263689079 -0.5000000000000002 -0.42187516362461086
v -1.468750089993525 -0.5 0.515624836375375
vt 0.1171875 0.7578125
vt 0.1328125 0.7578125
vt 0.1328125 0.6484375
vt 0.1171875 0.6484375
vt 0 0.7578125
vt 0.1171875 0.7578125
vt 0.1171875 0.6484375
vt 0 0.6484375
vt 0.25 0.7578125
vt 0.265625 0.7578125
vt 0.265625 0.6484375
vt 0.25 0.6484375
vt 0.1328125 0.7578125
vt 0.25 0.7578125
vt 0.25 0.6484375
vt 0.1328125 0.6484375
vt 0.1328125 0.7578125
vt 0.1171875 0.7578125
vt 0.1171875 0.875
vt 0.1328125 0.875
vt 0.1484375 0.875
vt 0.1328125 0.875
vt 0.1328125 0.7578125
vt 0.1484375 0.7578125
vn 1.7453292507696738e-7 -1.224646585406165e-16 -0.9999999999999849
vn 0.9999999999999849 1.2246467991473347e-16 1.7453292507696738e-7
vn -1.7453292507696738e-7 1.224646585406165e-16 0.9999999999999849
vn -0.9999999999999849 -1.2246467991473347e-16 -1.7453292507696738e-7
vn -1.224646585406165e-16 1 -1.2246467991473342e-16
vn 1.224646585406165e-16 -1 1.2246467991473342e-16
usemtl m_f4af86ab-1d26-71ca-ccf6-5589e59caf01
f 68/196/49 71/195/49 69/194/49 66/193/49
f 67/200/50 68/199/50 66/198/50 65/197/50
f 72/204/51 67/203/51 65/202/51 70/201/51
f 71/208/52 72/207/52 70/206/52 69/205/52
f 70/212/53 65/211/53 66/210/53 69/209/53
f 71/216/54 68/215/54 67/214/54 72/213/54
o Block2
v -0.5937500627227691 0.5703125 0.3593749890916865
v -0.5937500409061535 0.5703125 0.2343749890916884
v -0.5937500627227691 0.4453125 0.3593749890916865
v -0.5937500409061535 0.4453125 0.2343749890916884
v -0.7187500409061516 0.5703125 0.2343749672750728
v -0.7187500627227672 0.5703125 0.3593749672750709
v -0.7187500409061516 0.44531249999999994 0.2343749672750728
v -0.7187500627227672 0.4453125 0.3593749672750709
vt 0.0625 0.9296875
vt 0.078125 0.9296875
vt 0.078125 0.9140625
vt 0.0625 0.9140625
vt 0.046875 0.9296875
vt 0.0625 0.9296875
vt 0.0625 0.9140625
vt 0.046875 0.9140625
vt 0.09375 0.9296875
vt 0.109375 0.9296875
vt 0.109375 0.9140625
vt 0.09375 0.9140625
vt 0.078125 0.9296875
vt 0.09375 0.9296875
vt 0.09375 0.9140625
vt 0.078125 0.9140625
vt 0.078125 0.9296875
vt 0.0625 0.9296875
vt 0.0625 0.9453125
vt 0.078125 0.9453125
vt 0.09375 0.9453125
vt 0.078125 0.9453125
vt 0.078125 0.9296875
vt 0.09375 0.9296875
vn 1.7453292507696738e-7 -1.224646585406165e-16 -0.9999999999999849
vn 0.9999999999999849 1.2246467991473347e-16 1.7453292507696738e-7
vn -1.7453292507696738e-7 1.224646585406165e-16 0.9999999999999849
vn -0.9999999999999849 -1.2246467991473347e-16 -1.7453292507696738e-7
vn -1.224646585406165e-16 1 -1.2246467991473342e-16
vn 1.224646585406165e-16 -1 1.2246467991473342e-16
usemtl m_f4af86ab-1d26-71ca-ccf6-5589e59caf01
f 76/220/55 79/219/55 77/218/55 74/217/55
f 75/224/56 76/223/56 74/222/56 73/221/56
f 80/228/57 75/227/57 73/226/57 78/225/57
f 79/232/58 80/231/58 78/230/58 77/229/58
f 78/236/59 73/235/59 74/234/59 77/233/59
f 79/240/60 76/239/60 75/238/60 80/237/60
o Block
v 0.4687499100064453 0.37500000000000017 0.5156251745329172
v 0.4687500736310625 0.37500000000000006 -0.4218748254670686
v 0.4687499100064454 -0.49999999999999983 0.5156251745329173
v 0.46875007363106264 -0.49999999999999994 -0.4218748254670685
v 0.3437500736310644 0.37500000000000006 -0.4218748472836842
v 0.34374991000644717 0.37500000000000017 0.5156251527163016
v 0.3437500736310645 -0.49999999999999994 -0.4218748472836842
v 0.3437499100064473 -0.49999999999999983 0.5156251527163017
vt 0.265625 0.640625
vt 0.28125 0.640625
vt 0.28125 0.53125
vt 0.265625 0.53125
vt 0.1484375 0.640625
vt 0.265625 0.640625
vt 0.265625 0.53125
vt 0.1484375 0.53125
vt 0.3984375 0.640625
vt 0.4140625 0.640625
vt 0.4140625 0.53125
vt 0.3984375 0.53125
vt 0.28125 0.640625
vt 0.3984375 0.640625
vt 0.3984375 0.53125
vt 0.28125 0.53125
vt 0.28125 0.640625
vt 0.265625 0.640625
vt 0.265625 0.7578125
vt 0.28125 0.7578125
vt 0.296875 0.7578125
vt 0.28125 0.7578125
vt 0.28125 0.640625
vt 0.296875 0.640625
vn 1.7453292507696738e-7 -1.224646585406165e-16 -0.9999999999999849
vn 0.9999999999999849 1.2246467991473347e-16 1.7453292507696738e-7
vn -1.7453292507696738e-7 1.224646585406165e-16 0.9999999999999849
vn -0.9999999999999849 -1.2246467991473347e-16 -1.7453292507696738e-7
vn -1.224646585406165e-16 1 -1.2246467991473342e-16
vn 1.224646585406165e-16 -1 1.2246467991473342e-16
usemtl m_f4af86ab-1d26-71ca-ccf6-5589e59caf01
f 84/244/61 87/243/61 85/242/61 82/241/61
f 83/248/62 84/247/62 82/246/62 81/245/62
f 88/252/63 83/251/63 81/250/63 86/249/63
f 87/256/64 88/255/64 86/254/64 85/253/64
f 86/260/65 81/259/65 82/258/65 85/257/65
f 87/264/66 84/263/66 83/262/66 88/261/66