# Made in Blockbench 4.12.3
mtllib materials.mtl

o arroz
v 0.4472096737335505 0 0.1898793604855896
v 0.3711144951074604 0 0.0907101929491852
v 0.4472096737335505 -0.5 0.1898793604855896
v 0.3711144951074604 -0.5 0.0907101929491852
v 0.12319157626644944 0 0.2809481395144104
v 0.19928675489253952 0 0.3801173070508148
v 0.12319157626644944 -0.5 0.2809481395144104
v 0.19928675489253952 -0.5 0.3801173070508148
vt 0 0.8571428571428572
vt 0.35714285714285715 0.8571428571428572
vt 0.35714285714285715 0.47619047619047616
vt 0 0.47619047619047616
vt 0.42857142857142855 0.8571428571428572
vt 0.5714285714285714 0.8571428571428572
vt 0.5714285714285714 0.47619047619047616
vt 0.42857142857142855 0.47619047619047616
vt 0 0.8571428571428572
vt 0.35714285714285715 0.8571428571428572
vt 0.35714285714285715 0.47619047619047616
vt 0 0.47619047619047616
vt 0.42857142857142855 0.8571428571428572
vt 0.5714285714285714 0.8571428571428572
vt 0.5714285714285714 0.47619047619047616
vt 0.42857142857142855 0.47619047619047616
vt 0 1
vt 0.35714285714285715 1
vt 0.35714285714285715 0.9047619047619048
vt 0 0.9047619047619048
vt 0 0.5714285714285714
vt 0.35714285714285715 0.5714285714285714
vt 0.35714285714285715 0.47619047619047616
vt 0 0.47619047619047616
vn -0.6087614290087207 0 -0.7933533402912352
vn 0.7933533402912352 0 -0.6087614290087207
vn 0.6087614290087207 0 0.7933533402912352
vn -0.7933533402912352 0 0.6087614290087207
vn 0 1 0
vn 0 -1 0
usemtl m_5d62916a-e17a-3cbe-4b82-833cedfe3a38
f 4/4/1 7/3/1 5/2/1 2/1/1
f 3/8/2 4/7/2 2/6/2 1/5/2
f 8/12/3 3/11/3 1/10/3 6/9/3
f 7/16/4 8/15/4 6/14/4 5/13/4
f 6/20/5 1/19/5 2/18/5 5/17/5
f 7/24/6 4/23/6 3/22/6 8/21/6
o feijao
v -0.1553289303065205 -0.125 0.27348302169802297
v -0.1314112157837024 -0.125 0.21574055091606756
v -0.1553289303065205 -0.5 0.27348302169802297
v -0.1314112157837024 -0.5 0.21574055091606756
v -0.4201235696934795 -0.125 0.09615197830197703
v -0.4440412842162976 -0.125 0.15389444908393243
v -0.4201235696934795 -0.5 0.09615197830197703
v -0.4440412842162976 -0.5 0.15389444908393243
vt 0.6428571428571429 0.8571428571428572
vt 1 0.8571428571428572
vt 1 0.5714285714285714
vt 0.6428571428571429 0.5714285714285714
vt 0.6428571428571429 0.8571428571428572
vt 0.7142857142857143 0.8571428571428572
vt 0.7142857142857143 0.5714285714285714
vt 0.6428571428571429 0.5714285714285714
vt 0.6428571428571429 0.8571428571428572
vt 1 0.8571428571428572
vt 1 0.5714285714285714
vt 0.6428571428571429 0.5714285714285714
vt 0.6428571428571429 0.8571428571428572
vt 0.7142857142857143 0.8571428571428572
vt 0.7142857142857143 0.5714285714285714
vt 0.6428571428571429 0.5714285714285714
vt 0.6428571428571429 0.8571428571428572
vt 1 0.8571428571428572
vt 1 0.8095238095238095
vt 0.6428571428571429 0.8095238095238095
vt 0.6428571428571429 0.6190476190476191
vt 1 0.6190476190476191
vt 1 0.5714285714285714
vt 0.6428571428571429 0.5714285714285714
vn 0.3826834323650897 0 -0.9238795325112867
vn 0.9238795325112867 0 0.3826834323650897
vn -0.3826834323650897 0 0.9238795325112867
vn -0.9238795325112867 0 -0.3826834323650897
vn 0 1 0
vn 0 -1 0
usemtl m_5d62916a-e17a-3cbe-4b82-833cedfe3a38
f 12/28/7 15/27/7 13/26/7 10/25/7
f 11/32/8 12/31/8 10/30/8 9/29/8
f 16/36/9 11/35/9 9/34/9 14/33/9
f 15/40/10 16/39/10 14/38/10 13/37/10
f 14/44/11 9/43/11 10/42/11 13/41/11
f 15/48/12 12/47/12 11/46/12 16/45/12
o leite
v 0.25 -0.125 -0.125
v 0.25 -0.125 -0.25
v 0.25 -0.5 -0.125
v 0.25 -0.5 -0.25
v 0.0625 -0.125 -0.25
v 0.0625 -0.125 -0.125
v 0.0625 -0.5 -0.25
v 0.0625 -0.5 -0.125
vt 0 0.2857142857142857
vt 0.21428571428571427 0.2857142857142857
vt 0.21428571428571427 0
vt 0 0
vt 0.2857142857142857 0.2857142857142857
vt 0.42857142857142855 0.2857142857142857
vt 0.42857142857142855 0
vt 0.2857142857142857 0
vt 0 0.2857142857142857
vt 0.21428571428571427 0.2857142857142857
vt 0.21428571428571427 0
vt 0 0
vt 0.2857142857142857 0.2857142857142857
vt 0.42857142857142855 0.2857142857142857
vt 0.42857142857142855 0
vt 0.2857142857142857 0
vt 0 0.4285714285714286
vt 0.21428571428571427 0.4285714285714286
vt 0.21428571428571427 0.33333333333333337
vt 0 0.33333333333333337
vt 0 0.2857142857142857
vt 0.21428571428571427 0.2857142857142857
vt 0.21428571428571427 0.19047619047619047
vt 0 0.19047619047619047
vn 0 0 -1
vn 1 0 0
vn 0 0 1
vn -1 0 0
vn 0 1 0
vn 0 -1 0
usemtl m_5d62916a-e17a-3cbe-4b82-833cedfe3a38
f 20/52/13 23/51/13 21/50/13 18/49/13
f 19/56/14 20/55/14 18/54/14 17/53/14
f 24/60/15 19/59/15 17/58/15 22/57/15
f 23/64/16 24/63/16 22/62/16 21/61/16
f 22/68/17 17/67/17 18/66/17 21/65/17
f 23/72/18 20/71/18 19/70/18 24/69/18
o tody
v -0.21591422015873502 -0.25 -0.1456523272430264
v -0.17316170224302643 -0.25 -0.26311390484126496
v -0.21591422015873502 -0.5 -0.1456523272430264
v -0.17316170224302643 -0.5 -0.26311390484126496
v -0.290623279841265 -0.25 -0.30586642275697357
v -0.33337579775697357 -0.25 -0.188404845158735
v -0.290623279841265 -0.5 -0.30586642275697357
v -0.33337579775697357 -0.5 -0.188404845158735
vt 0.5 0.33333333333333337
vt 0.6428571428571429 0.33333333333333337
vt 0.6428571428571429 0.09523809523809523
vt 0.5 0.09523809523809523
vt 0.5 0.33333333333333337
vt 0.6428571428571429 0.33333333333333337
vt 0.6428571428571429 0.09523809523809523
vt 0.5 0.09523809523809523
vt 0.5 0.33333333333333337
vt 0.6428571428571429 0.33333333333333337
vt 0.6428571428571429 0.09523809523809523
vt 0.5 0.09523809523809523
vt 0.5 0.33333333333333337
vt 0.6428571428571429 0.33333333333333337
vt 0.6428571428571429 0.09523809523809523
vt 0.5 0.09523809523809523
vt 0.5 0.47619047619047616
vt 0.6428571428571429 0.47619047619047616
vt 0.6428571428571429 0.38095238095238093
vt 0.5 0.38095238095238093
vt 0.5 0.19047619047619047
vt 0.6428571428571429 0.19047619047619047
vt 0.6428571428571429 0.09523809523809523
vt 0.5 0.09523809523809523
vn 0.34202014332566866 0 -0.9396926207859084
vn 0.9396926207859084 0 0.34202014332566866
vn -0.34202014332566866 0 0.9396926207859084
vn -0.9396926207859084 0 -0.34202014332566866
vn 0 1 0
vn 0 -1 0
usemtl m_5d62916a-e17a-3cbe-4b82-833cedfe3a38
f 28/76/19 31/75/19 29/74/19 26/73/19
f 27/80/20 28/79/20 26/78/20 25/77/20
f 32/84/21 27/83/21 25/82/21 30/81/21
f 31/88/22 32/87/22 30/86/22 29/85/22
f 30/92/23 25/91/23 26/90/23 29/89/23
f 31/96/24 28/95/24 27/94/24 32/93/24