# Made in Blockbench 4.12.4
mtllib caixa_som.mtl

o bone
v 0.28125 0.375 0.5
v 0.28125 0.375 0.125
v 0.28125 -0.5 0.5
v 0.28125 -0.5 0.125
v -0.28125 0.375 0.125
v -0.28125 0.375 0.5
v -0.28125 -0.5 0.125
v -0.28125 -0.5 0.5
vt 0.1875 0.8125
vt 0.46875 0.8125
vt 0.46875 0.375
vt 0.1875 0.375
vt 0 0.8125
vt 0.1875 0.8125
vt 0.1875 0.375
vt 0 0.375
vt 0.65625 0.8125
vt 0.9375 0.8125
vt 0.9375 0.375
vt 0.65625 0.375
vt 0.46875 0.8125
vt 0.65625 0.8125
vt 0.65625 0.375
vt 0.46875 0.375
vt 0.1875 1
vt 0.46875 1
vt 0.46875 0.8125
vt 0.1875 0.8125
vt 0.46875 1
vt 0.75 1
vt 0.75 0.8125
vt 0.46875 0.8125
vn 0 0 -1
vn 1 0 0
vn 0 0 1
vn -1 0 0
vn 0 1 0
vn 0 -1 0
usemtl m_72d19086-2689-017a-5f18-9da34dcc552c
f 4/4/1 7/3/1 5/2/1 2/1/1
f 3/8/2 4/7/2 2/6/2 1/5/2
f 8/12/3 3/11/3 1/10/3 6/9/3
f 7/16/4 8/15/4 6/14/4 5/13/4
f 6/20/5 1/19/5 2/18/5 5/17/5
f 7/24/6 4/23/6 3/22/6 8/21/6