# Made in Blockbench 4.12.4
mtllib cano_laje.mtl

o bb_main
v -0.0625000000000001 -0.375 -0.75
v -0.06250000000000003 -0.375 -0.25
v -0.0625000000000001 -0.5 -0.75
v -0.06250000000000003 -0.5 -0.25
v 0.06249999999999997 -0.375 -0.25
v 0.06249999999999991 -0.375 -0.75
v 0.06249999999999997 -0.5 -0.25
v 0.06249999999999991 -0.5 -0.75
vt 0 1
vt 0 1
vt 0 1
vt 0 1
vt 0 0.5
vt 0 1
vt 1 1
vt 1 0.5
vt 0 1
vt 1 1
vt 1 0.875
vt 0 0.875
vt 0 0.5
vt 0 1
vt 1 1
vt 1 0.5
vt 1 0.5
vt 0 0.5
vt 0 1
vt 1 1
vt 1 1
vt 0 1
vt 0 0.5
vt 1 0.5
vn 1.2246467991473532e-16 0 1
vn -1 0 1.2246467991473532e-16
vn -1.2246467991473532e-16 0 -1
vn 1 0 -1.2246467991473532e-16
vn 0 1 0
vn 0 -1 0
usemtl m_694e4ba1-257f-7f9a-cc2b-1072b8694e5b
f 4/4/1 7/3/1 5/2/1 2/1/1
f 3/8/2 4/7/2 2/6/2 1/5/2
f 8/12/3 3/11/3 1/10/3 6/9/3
f 7/16/4 8/15/4 6/14/4 5/13/4
f 6/20/5 1/19/5 2/18/5 5/17/5
f 7/24/6 4/23/6 3/22/6 8/21/6