# Made in Blockbench 4.12.4
mtllib filtro.mtl

o Filtro
v 0.24999998370850796 -0.375 0.18750002172198743
v 0.2500000217219872 -0.375 -0.2499999782780109
v 0.24999998370850796 -0.5 0.18750002172198743
v 0.2500000217219872 -0.5 -0.2499999782780109
v -0.2499999782780109 -0.375 -0.2500000217219872
v -0.25000001629149016 -0.375 0.18749997827801113
v -0.2499999782780109 -0.5 -0.2500000217219872
v -0.25000001629149016 -0.5 0.18749997827801113
vt 0.375 0.171875
vt 0.5 0.171875
vt 0.5 0.140625
vt 0.375 0.140625
vt 0.375 0.171875
vt 0.484375 0.171875
vt 0.484375 0.140625
vt 0.375 0.140625
vt 0.375 0.171875
vt 0.5 0.171875
vt 0.5 0.140625
vt 0.375 0.140625
vt 0.390625 0.171875
vt 0.5 0.171875
vt 0.5 0.140625
vt 0.390625 0.140625
vt 0.5 0.1875
vt 0.375 0.1875
vt 0.375 0.296875
vt 0.5 0.296875
vt 0.625 0.296875
vt 0.5 0.296875
vt 0.5 0.1875
vt 0.625 0.1875
vn 8.688795256531763e-8 -1.0127553081282584e-26 -0.9999999999999962
vn 0.9999999999999962 -1.165587723300213e-19 8.688795256531763e-8
vn -8.688795256531763e-8 1.0127553081282584e-26 0.9999999999999962
vn -0.9999999999999962 1.165587723300213e-19 -8.688795256531763e-8
vn 1.1655877233002175e-19 1 2.8698592549372254e-42
vn -1.1655877233002175e-19 -1 -2.8698592549372254e-42
usemtl m_9b923f31-9744-bcf5-5b52-f3b70dc44ffd
f 4/4/1 7/3/1 5/2/1 2/1/1
f 3/8/2 4/7/2 2/6/2 1/5/2
f 8/12/3 3/11/3 1/10/3 6/9/3
f 7/16/4 8/15/4 6/14/4 5/13/4
f 6/20/5 1/19/5 2/18/5 5/17/5
f 7/24/6 4/23/6 3/22/6 8/21/6
o cube
v 0.15624999185425387 -0.25 0.09375001357624223
v 0.156250013576242 -0.25 -0.15624998642375684
v 0.15624999185425387 -0.375 0.09375001357624223
v 0.156250013576242 -0.375 -0.15624998642375684
v -0.15624998642375684 -0.25 -0.156250013576242
v -0.15625000814574497 -0.25 0.09374998642375705
v -0.15624998642375684 -0.375 -0.156250013576242
v -0.15625000814574497 -0.375 0.09374998642375705
vt 0.171875 0.703125
vt 0.25 0.703125
vt 0.25 0.671875
vt 0.171875 0.671875
vt 0.1875 0.703125
vt 0.25 0.703125
vt 0.25 0.671875
vt 0.1875 0.671875
vt 0.171875 0.703125
vt 0.25 0.703125
vt 0.25 0.671875
vt 0.171875 0.671875
vt 0.171875 0.703125
vt 0.234375 0.703125
vt 0.234375 0.671875
vt 0.171875 0.671875
vt 0.25 0.71875
vt 0.171875 0.71875
vt 0.171875 0.78125
vt 0.25 0.78125
vt 0.328125 0.78125
vt 0.25 0.78125
vt 0.25 0.71875
vt 0.328125 0.71875
vn 8.688795256531763e-8 -1.0127553081282584e-26 -0.9999999999999962
vn 0.9999999999999962 -1.165587723300213e-19 8.688795256531763e-8
vn -8.688795256531763e-8 1.0127553081282584e-26 0.9999999999999962
vn -0.9999999999999962 1.165587723300213e-19 -8.688795256531763e-8
vn 1.1655877233002175e-19 1 2.8698592549372254e-42
vn -1.1655877233002175e-19 -1 -2.8698592549372254e-42
usemtl m_9b923f31-9744-bcf5-5b52-f3b70dc44ffd
f 12/28/7 15/27/7 13/26/7 10/25/7
f 11/32/8 12/31/8 10/30/8 9/29/8
f 16/36/9 11/35/9 9/34/9 14/33/9
f 15/40/10 16/39/10 14/38/10 13/37/10
f 14/44/11 9/43/11 10/42/11 13/41/11
f 15/48/12 12/47/12 11/46/12 16/45/12
o cube
v 0.21874998099325954 0.25 0.2187500190067388
v 0.21875002443723582 0.25 -0.2812499809932593
v 0.21874998099325954 -0.25 0.2187500190067388
v 0.21875002443723582 -0.25 -0.2812499809932593
v -0.21874997556276252 0.25 -0.28125001900673857
v -0.2187500190067388 0.25 0.21874998099325954
v -0.21874997556276252 -0.25 -0.28125001900673857
v -0.2187500190067388 -0.25 0.21874998099325954
vt 0.140625 0.15625
vt 0.25 0.15625
vt 0.25 0.03125
vt 0.140625 0.03125
vt 0.140625 0.15625
vt 0.265625 0.15625
vt 0.265625 0.03125
vt 0.140625 0.03125
vt 0.140625 0.15625
vt 0.25 0.15625
vt 0.25 0.03125
vt 0.140625 0.03125
vt 0.140625 0.15625
vt 0.265625 0.15625
vt 0.265625 0.03125
vt 0.140625 0.03125
vt 0.25 0.171875
vt 0.140625 0.171875
vt 0.140625 0.296875
vt 0.25 0.296875
vt 0.25 0.296875
vt 0.140625 0.296875
vt 0.140625 0.171875
vt 0.25 0.171875
vn 8.688795256531763e-8 -1.0127553081282584e-26 -0.9999999999999962
vn 0.9999999999999962 -1.165587723300213e-19 8.688795256531763e-8
vn -8.688795256531763e-8 1.0127553081282584e-26 0.9999999999999962
vn -0.9999999999999962 1.165587723300213e-19 -8.688795256531763e-8
vn 1.1655877233002175e-19 1 2.8698592549372254e-42
vn -1.1655877233002175e-19 -1 -2.8698592549372254e-42
usemtl m_9b923f31-9744-bcf5-5b52-f3b70dc44ffd
f 20/52/13 23/51/13 21/50/13 18/49/13
f 19/56/14 20/55/14 18/54/14 17/53/14
f 24/60/15 19/59/15 17/58/15 22/57/15
f 23/64/16 24/63/16 22/62/16 21/61/16
f 22/68/17 17/67/17 18/66/17 21/65/17
f 23/72/18 20/71/18 19/70/18 24/69/18
o cube
v 0.2499999782780109 0.6875 0.2500000217219872
v 0.2500000271524842 0.6875 -0.3124999782780107
v 0.2499999782780109 0.25 0.2500000217219872
v 0.2500000271524842 0.25 -0.3124999782780107
v -0.24999997284751388 0.6875 -0.312500021721987
v -0.2500000217219872 0.6875 0.2499999782780109
v -0.24999997284751388 0.25 -0.312500021721987
v -0.2500000217219872 0.25 0.2499999782780109
vt 0.171875 0.453125
vt 0.296875 0.453125
vt 0.296875 0.34375
vt 0.171875 0.34375
vt 0.171875 0.453125
vt 0.3125 0.453125
vt 0.3125 0.34375
vt 0.171875 0.34375
vt 0.1875 0.453125
vt 0.3125 0.453125
vt 0.3125 0.34375
vt 0.1875 0.34375
vt 0.171875 0.453125
vt 0.3125 0.453125
vt 0.3125 0.34375
vt 0.171875 0.34375
vt 0.296875 0.46875
vt 0.171875 0.46875
vt 0.171875 0.609375
vt 0.296875 0.609375
vt 0.453125 0.609375
vt 0.328125 0.609375
vt 0.328125 0.46875
vt 0.453125 0.46875
vn 8.688795256531763e-8 -1.0127553081282584e-26 -0.9999999999999962
vn 0.9999999999999962 -1.165587723300213e-19 8.688795256531763e-8
vn -8.688795256531763e-8 1.0127553081282584e-26 0.9999999999999962
vn -0.9999999999999962 1.165587723300213e-19 -8.688795256531763e-8
vn 1.1655877233002175e-19 1 2.8698592549372254e-42
vn -1.1655877233002175e-19 -1 -2.8698592549372254e-42
usemtl m_9b923f31-9744-bcf5-5b52-f3b70dc44ffd
f 28/76/19 31/75/19 29/74/19 26/73/19
f 27/80/20 28/79/20 26/78/20 25/77/20
f 32/84/21 27/83/21 25/82/21 30/81/21
f 31/88/22 32/87/22 30/86/22 29/85/22
f 30/92/23 25/91/23 26/90/23 29/89/23
f 31/96/24 28/95/24 27/94/24 32/93/24
o cube
v 0.21874998370850807 0.75 0.1875000190067389
v 0.21875002172198732 0.75 -0.24999998099325943
v 0.21874998370850807 0.6875 0.1875000190067389
v 0.21875002172198732 0.6875 -0.24999998099325943
v -0.21874997827801101 0.75 -0.2500000190067387
v -0.21875001629149027 0.75 0.18749998099325965
v -0.21874997827801101 0.6875 -0.2500000190067387
v -0.21875001629149027 0.6875 0.18749998099325965
vt 0.671875 0.546875
vt 0.78125 0.546875
vt 0.78125 0.53125
vt 0.671875 0.53125
vt 0.78125 0.546875
vt 0.890625 0.546875
vt 0.890625 0.53125
vt 0.78125 0.53125
vt 0.671875 0.546875
vt 0.78125 0.546875
vt 0.78125 0.53125
vt 0.671875 0.53125
vt 0.671875 0.546875
vt 0.78125 0.546875
vt 0.78125 0.53125
vt 0.671875 0.53125
vt 0.78125 0.546875
vt 0.671875 0.546875
vt 0.671875 0.65625
vt 0.78125 0.65625
vt 0.890625 0.65625
vt 0.78125 0.65625
vt 0.78125 0.546875
vt 0.890625 0.546875
vn 8.688795256531763e-8 -1.0127553081282584e-26 -0.9999999999999962
vn 0.9999999999999962 -1.165587723300213e-19 8.688795256531763e-8
vn -8.688795256531763e-8 1.0127553081282584e-26 0.9999999999999962
vn -0.9999999999999962 1.165587723300213e-19 -8.688795256531763e-8
vn 1.1655877233002175e-19 1 2.8698592549372254e-42
vn -1.1655877233002175e-19 -1 -2.8698592549372254e-42
usemtl m_9b923f31-9744-bcf5-5b52-f3b70dc44ffd
f 36/100/25 39/99/25 37/98/25 34/97/25
f 35/104/26 36/103/26 34/102/26 33/101/26
f 40/108/27 35/107/27 33/106/27 38/105/27
f 39/112/28 40/111/28 38/110/28 37/109/28
f 38/116/29 33/115/29 34/114/29 37/113/29
f 39/120/30 36/119/30 35/118/30 40/117/30
o cube
v 0.08166018477619193 0.84375 0.0025747640904350486
v 0.03382476680568345 0.84375 -0.1129101820609433
v 0.08166018477619193 0.71875 0.0025747640904350486
v 0.03382476680568345 0.71875 -0.1129101820609433
v -0.0816601793456949 0.84375 -0.0650747640904348
v -0.03382476137518641 0.84375 0.05041018206094353
v -0.0816601793456949 0.71875 -0.0650747640904348
v -0.03382476137518641 0.71875 0.05041018206094353
vt 0.8125 0.71875
vt 0.84375 0.71875
vt 0.84375 0.6875
vt 0.8125 0.6875
vt 0.78125 0.71875
vt 0.8125 0.71875
vt 0.8125 0.6875
vt 0.78125 0.6875
vt 0.78125 0.71875
vt 0.8125 0.71875
vt 0.8125 0.6875
vt 0.78125 0.6875
vt 0.78125 0.71875
vt 0.8125 0.71875
vt 0.8125 0.6875
vt 0.78125 0.6875
vt 0.8125 0.71875
vt 0.78125 0.71875
vt 0.78125 0.75
vt 0.8125 0.75
vt 0.84375 0.75
vt 0.8125 0.75
vt 0.8125 0.71875
vt 0.84375 0.71875
vn -0.3826833437640679 4.4605100740287424e-20 -0.9238795692110268
vn 0.9238795692110268 -1.0768626836802662e-19 -0.3826833437640679
vn 0.3826833437640679 -4.4605100740287424e-20 0.9238795692110268
vn -0.9238795692110268 1.0768626836802662e-19 0.3826833437640679
vn 1.1655877233002173e-19 1 0
vn -1.1655877233002173e-19 -1 0
usemtl m_9b923f31-9744-bcf5-5b52-f3b70dc44ffd
f 44/124/31 47/123/31 45/122/31 42/121/31
f 43/128/32 44/127/32 42/126/32 41/125/32
f 48/132/33 43/131/33 41/130/33 46/129/33
f 47/136/34 48/135/34 46/134/34 45/133/34
f 46/140/35 41/139/35 42/138/35 45/137/35
f 47/144/36 44/143/36 43/142/36 48/141/36
o Torneira
v 0.12499998913900545 -0.375 0.1250000108609936
v 0.12499999999999953 -0.375 1.0860994048567107e-8
v 0.12499998913900545 -0.5 0.1250000108609936
v 0.12499999999999953 -0.5 1.0860994048567107e-8
v 1.4571613670734136e-20 -0.375 0
v -1.0860994070650137e-8 -0.375 0.1249999999999995
v 0 -0.5 0
v -1.0860994070664708e-8 -0.5 0.1249999999999995
vt 0 1
vt NaN 1
vt NaN NaN
vt 0 NaN
vt 0 1
vt NaN 1
vt NaN NaN
vt 0 NaN
vt 0 1
vt NaN 1
vt NaN NaN
vt 0 NaN
vt 0 1
vt NaN 1
vt NaN NaN
vt 0 NaN
vt 0 1
vt NaN 1
vt NaN NaN
vt 0 NaN
vt 0 1
vt NaN 1
vt NaN NaN
vt 0 NaN
vn 8.688795256531763e-8 -1.0127553081282584e-26 -0.9999999999999962
vn 0.9999999999999962 -1.165587723300213e-19 8.688795256531763e-8
vn -8.688795256531763e-8 1.0127553081282584e-26 0.9999999999999962
vn -0.9999999999999962 1.165587723300213e-19 -8.688795256531763e-8
vn 1.1655877233002175e-19 1 2.8698592549372254e-42
vn -1.1655877233002175e-19 -1 -2.8698592549372254e-42
usemtl m_9b923f31-9744-bcf5-5b52-f3b70dc44ffd
f 52/148/37 55/147/37 53/146/37 50/145/37
f 51/152/38 52/151/38 50/150/38 49/149/38
f 56/156/39 51/155/39 49/154/39 54/153/39
f 55/160/40 56/159/40 54/158/40 53/157/40
f 54/164/41 49/163/41 50/162/41 53/161/41
f 55/168/42 52/167/42 51/166/42 56/165/42
o cube
v 0.06250003158355208 0.2737116037229259 -0.36349748054764747
v 0.06250003158355208 0.2737116037229259 -0.36349748054764747
v 0.06250003715557012 0.09751923696005749 -0.42762625641697805
v 0.06250003715557012 0.09751923696005749 -0.42762625641697805
v -0.06249996841644745 0.2737116037229259 -0.3634974914086415
v -0.06249996841644745 0.2737116037229259 -0.3634974914086415
v -0.06249996284442941 0.09751923696005749 -0.4276262672779721
v -0.06249996284442941 0.09751923696005749 -0.4276262672779721
vt 0.59375 0.703125
vt 0.625 0.703125
vt 0.625 0.65625
vt 0.59375 0.65625
vt 0.59375 0.703125
vt 0.59375 0.703125
vt 0.59375 0.65625
vt 0.59375 0.65625
vt 0.5625 0.703125
vt 0.59375 0.703125
vt 0.59375 0.65625
vt 0.5625 0.65625
vt 0.5625 0.703125
vt 0.5625 0.703125
vt 0.5625 0.65625
vt 0.5625 0.65625
vt 0.5625 0.703125
vt 0.59375 0.703125
vt 0.59375 0.703125
vt 0.5625 0.703125
vt 0.59375 0.703125
vt 0.625 0.703125
vt 0.625 0.703125
vt 0.59375 0.703125
vn 8.164796803024336e-8 0.34202013796976427 -0.9396926227352946
vn 0.9999999999999962 -1.1655636575362202e-19 8.688795256531761e-8
vn -8.164796803024336e-8 -0.34202013796976427 0.9396926227352946
vn -0.9999999999999962 1.1655636575362202e-19 -8.688795256531761e-8
vn -2.9717429524190735e-8 0.9396926227352982 0.34202013796976294
vn 2.9717429524190735e-8 -0.9396926227352982 -0.34202013796976294
usemtl m_9b923f31-9744-bcf5-5b52-f3b70dc44ffd
f 60/172/43 63/171/43 61/170/43 58/169/43
f 59/176/44 60/175/44 58/174/44 57/173/44
f 64/180/45 59/179/45 57/178/45 62/177/45
f 63/184/46 64/183/46 62/182/46 61/181/46
f 62/188/47 57/187/47 58/186/47 61/185/47
f 63/192/48 60/191/48 59/190/48 64/189/48
o cube
v 0.06250002443723641 0.09375 -0.28124999456950195
v 0.06250003529823049 0.09375 -0.40624999456950145
v 0.06250002443723641 0.03125 -0.28124999456950195
v 0.06250003529823049 0.03125 -0.40624999456950145
v -0.06249996470176903 0.09375 -0.4062500054304955
v -0.062499975562763106 0.09375 -0.281250005430496
v -0.06249996470176903 0.03125 -0.4062500054304955
v -0.062499975562763106 0.03125 -0.281250005430496
vt 0.390625 0.703125
vt 0.421875 0.703125
vt 0.421875 0.6875
vt 0.390625 0.6875
vt 0.421875 0.703125
vt 0.453125 0.703125
vt 0.453125 0.6875
vt 0.421875 0.6875
vt 0.390625 0.703125
vt 0.421875 0.703125
vt 0.421875 0.6875
vt 0.390625 0.6875
vt 0.390625 0.703125
vt 0.421875 0.703125
vt 0.421875 0.6875
vt 0.390625 0.6875
vt 0.421875 0.703125
vt 0.390625 0.703125
vt 0.390625 0.734375
vt 0.421875 0.734375
vt 0.421875 0.734375
vt 0.390625 0.734375
vt 0.390625 0.703125
vt 0.421875 0.703125
vn 8.688795256531763e-8 -1.0127553081282584e-26 -0.9999999999999962
vn 0.9999999999999962 -1.165587723300213e-19 8.688795256531763e-8
vn -8.688795256531763e-8 1.0127553081282584e-26 0.9999999999999962
vn -0.9999999999999962 1.165587723300213e-19 -8.688795256531763e-8
vn 1.1655877233002175e-19 1 2.8698592549372254e-42
vn -1.1655877233002175e-19 -1 -2.8698592549372254e-42
usemtl m_9b923f31-9744-bcf5-5b52-f3b70dc44ffd
f 68/196/49 71/195/49 69/194/49 66/193/49
f 67/200/50 68/199/50 66/198/50 65/197/50
f 72/204/51 67/203/51 65/202/51 70/201/51
f 71/208/52 72/207/52 70/206/52 69/205/52
f 70/212/53 65/211/53 66/210/53 69/209/53
f 71/216/54 68/215/54 67/214/54 72/213/54
o cube
v 0.06250003529823049 0.09375 -0.4062499945695014
v 0.06250004072872753 0.09375 -0.46874999456950117
v 0.06250003529823049 -0.03125 -0.4062499945695014
v 0.06250004072872753 -0.03125 -0.46874999456950117
v -0.062499959271272 0.09375 -0.4687500054304953
v -0.06249996470176903 0.09375 -0.4062500054304955
v -0.062499959271272 -0.03125 -0.4687500054304953
v -0.06249996470176903 -0.03125 -0.4062500054304955
vt 0.546875 0.625
vt 0.578125 0.625
vt 0.578125 0.59375
vt 0.546875 0.59375
vt 0.5625 0.625
vt 0.578125 0.625
vt 0.578125 0.59375
vt 0.5625 0.59375
vt 0.546875 0.625
vt 0.578125 0.625
vt 0.578125 0.59375
vt 0.546875 0.59375
vt 0.546875 0.625
vt 0.5625 0.625
vt 0.5625 0.59375
vt 0.546875 0.59375
vt 0.578125 0.625
vt 0.546875 0.625
vt 0.546875 0.640625
vt 0.578125 0.640625
vt 0.609375 0.640625
vt 0.578125 0.640625
vt 0.578125 0.625
vt 0.609375 0.625
vn 8.688795256531763e-8 -1.0127553081282584e-26 -0.9999999999999962
vn 0.9999999999999962 -1.165587723300213e-19 8.688795256531763e-8
vn -8.688795256531763e-8 1.0127553081282584e-26 0.9999999999999962
vn -0.9999999999999962 1.165587723300213e-19 -8.688795256531763e-8
vn 1.1655877233002175e-19 1 2.8698592549372254e-42
vn -1.1655877233002175e-19 -1 -2.8698592549372254e-42
usemtl m_9b923f31-9744-bcf5-5b52-f3b70dc44ffd
f 76/220/55 79/219/55 77/218/55 74/217/55
f 75/224/56 76/223/56 74/222/56 73/221/56
f 80/228/57 75/227/57 73/226/57 78/225/57
f 79/232/58 80/231/58 78/230/58 77/229/58
f 78/236/59 73/235/59 74/234/59 77/233/59
f 79/240/60 76/239/60 75/238/60 80/237/60