# Made in Blockbench 4.12.4
mtllib guardaroupao.mtl

o Block
v 1.5 2.5 0.5
v 1.5 2.5 0
v 1.5 -0.5 0.5
v 1.5 -0.5 0
v 0.5 2.5 0
v 0.5 2.5 0.5
v 0.5 -0.5 0
v 0.5 -0.5 0.5
vt 0.34375 0.828125
vt 0.84375 0.828125
vt 0.84375 0.078125
vt 0.34375 0.078125
vt 0.09375 0.828125
vt 0.34375 0.828125
vt 0.34375 0.328125
vt 0.09375 0.328125
vt 0 0.828125
vt 0.5 0.828125
vt 0.5 0.078125
vt 0 0.078125
vt 0.34375 0.953125
vt 0.84375 0.953125
vt 0.84375 0.828125
vt 0.34375 0.828125
vt 0.34375 0.953125
vt 0.84375 0.953125
vt 0.84375 0.828125
vt 0.34375 0.828125
vn 0 0 -1
vn 1 0 0
vn 0 0 1
vn 0 1 0
vn 0 -1 0
usemtl m_42a1f620-fc58-4c11-18d7-e00d77edf067
f 4/4/1 7/3/1 5/2/1 2/1/1
f 3/8/2 4/7/2 2/6/2 1/5/2
f 8/12/3 3/11/3 1/10/3 6/9/3
f 6/16/4 1/15/4 2/14/4 5/13/4
f 7/20/5 4/19/5 3/18/5 8/17/5
o Block
v 0.5 2.5 0.5
v 0.5 2.5 0
v 0.5 -0.5 0.5
v 0.5 -0.5 0
v -0.5 2.5 0
v -0.5 2.5 0.5
v -0.5 -0.5 0
v -0.5 -0.5 0.5
vt 0.34375 0.828125
vt 0.84375 0.828125
vt 0.84375 0.078125
vt 0.34375 0.078125
vt 0 0.828125
vt 0.5 0.828125
vt 0.5 0.078125
vt 0 0.078125
vt 0.34375 0.953125
vt 0.84375 0.953125
vt 0.84375 0.828125
vt 0.34375 0.828125
vt 0.34375 0.953125
vt 0.84375 0.953125
vt 0.84375 0.828125
vt 0.34375 0.828125
vn 0 0 -1
vn 0 0 1
vn 0 1 0
vn 0 -1 0
usemtl m_42a1f620-fc58-4c11-18d7-e00d77edf067
f 12/24/6 15/23/6 13/22/6 10/21/6
f 16/28/7 11/27/7 9/26/7 14/25/7
f 14/32/8 9/31/8 10/30/8 13/29/8
f 15/36/9 12/35/9 11/34/9 16/33/9
o Block
v -0.5 2.5 0.5
v -0.5 2.5 0
v -0.5 -0.5 0.5
v -0.5 -0.5 0
v -1.5 2.5 0
v -1.5 2.5 0.5
v -1.5 -0.5 0
v -1.5 -0.5 0.5
vt 0.34375 0.828125
vt 0.84375 0.828125
vt 0.84375 0.078125
vt 0.34375 0.078125
vt 0 0.828125
vt 0.5 0.828125
vt 0.5 0.078125
vt 0 0.078125
vt 0.09375 0.828125
vt 0.34375 0.828125
vt 0.34375 0.328125
vt 0.09375 0.328125
vt 0.34375 0.953125
vt 0.84375 0.953125
vt 0.84375 0.828125
vt 0.34375 0.828125
vt 0.34375 0.953125
vt 0.84375 0.953125
vt 0.84375 0.828125
vt 0.34375 0.828125
vn 0 0 -1
vn 0 0 1
vn -1 0 0
vn 0 1 0
vn 0 -1 0
usemtl m_42a1f620-fc58-4c11-18d7-e00d77edf067
f 20/40/10 23/39/10 21/38/10 18/37/10
f 24/44/11 19/43/11 17/42/11 22/41/11
f 23/48/12 24/47/12 22/46/12 21/45/12
f 22/52/13 17/51/13 18/50/13 21/49/13
f 23/56/14 20/55/14 19/54/14 24/53/14