# Made in Blockbench 4.12.4
mtllib letreiro.mtl

o Block1
v -2 0.5625 0.4375000000000002
v -2 0.5625 0.5000000000000002
v -2 -0.5 0.4375000000000002
v -2 -0.5 0.5000000000000002
v 2 0.5625 0.4999999999999998
v 2 0.5625 0.4374999999999998
v 2 -0.5 0.4999999999999998
v 2 -0.5 0.4374999999999998
vt 0 0.46875
vt 1 0.46875
vt 1 -0.0625
vt 0 -0.0625
vt 0.984375 1
vt 1 1
vt 1 0.46875
vt 0.984375 0.46875
vt 0 1
vt 1 1
vt 1 0.46875
vt 0 0.46875
vt 0 1
vt 0.015625 1
vt 0.015625 0.46875
vt 0 0.46875
vt 0 1
vt 1 1
vt 1 0.96875
vt 0 0.96875
vt 0 1
vt 1 1
vt 1 0.96875
vt 0 0.96875
vn 1.2246467991473532e-16 0 1
vn -1 0 1.2246467991473532e-16
vn -1.2246467991473532e-16 0 -1
vn 1 0 -1.2246467991473532e-16
vn 0 1 0
vn 0 -1 0
usemtl m_b3ccaac0-b646-874a-9b4c-f2cba31ccf17
f 4/4/1 7/3/1 5/2/1 2/1/1
f 3/8/2 4/7/2 2/6/2 1/5/2
f 8/12/3 3/11/3 1/10/3 6/9/3
f 7/16/4 8/15/4 6/14/4 5/13/4
f 6/20/5 1/19/5 2/18/5 5/17/5
f 7/24/6 4/23/6 3/22/6 8/21/6