# Made in Blockbench 4.12.4
mtllib muro_vidro.mtl

o bb_main
v 0.06250000000000001 -0.4375 -0.062499999999999986
v -0.062499999999999986 -0.4375 -0.06250000000000001
v 0.06250000000000001 -0.5 -0.062499999999999986
v -0.062499999999999986 -0.5 -0.06250000000000001
v -0.06250000000000001 -0.4375 0.062499999999999986
v 0.062499999999999986 -0.4375 0.06250000000000001
v -0.06250000000000001 -0.5 0.062499999999999986
v 0.062499999999999986 -0.5 0.06250000000000001
vt 0 0.625
vt 0.125 0.625
vt 0.125 0.5625
vt 0 0.5625
vn -1 0 -2.220446049250313e-16
usemtl m_ca70e79e-f636-c146-a5ab-8b4604e458b3
f 4/4/1 7/3/1 5/2/1 2/1/1
o bb_main
v -0.3992642854783613 -0.3125 0.003194453785399759
v -0.3992642854783613 -0.3125 0.003194453785399759
v -0.3992642854783613 -0.5 0.003194453785399759
v -0.3992642854783613 -0.5 0.003194453785399759
v -0.3507357145216387 -0.3125 0.18430554621460007
v -0.3507357145216387 -0.3125 0.18430554621460007
v -0.3507357145216387 -0.5 0.18430554621460007
v -0.3507357145216387 -0.5 0.18430554621460007
vt 0 0.1875
vt 0.1875 0.1875
vt 0.1875 0
vt 0 0
vn -0.9659258262890684 0 0.2588190451025205
usemtl m_ca70e79e-f636-c146-a5ab-8b4604e458b3
f 12/8/2 15/7/2 13/6/2 10/5/2
o bb_main
v 0.28206438843678144 -0.3125 -0.18184618319867885
v 0.28206438843678144 -0.3125 -0.18184618319867885
v 0.28206438843678144 -0.5 -0.18184618319867885
v 0.28206438843678144 -0.5 -0.18184618319867885
v 0.21793561156321856 -0.3125 -0.005653816801321043
v 0.21793561156321856 -0.3125 -0.005653816801321043
v 0.21793561156321856 -0.5 -0.005653816801321043
v 0.21793561156321856 -0.5 -0.005653816801321043
vt 0.25 0.1875
vt 0.4375 0.1875
vt 0.4375 0
vt 0.25 0
vn -0.9396926207859083 0 -0.3420201433256689
usemtl m_ca70e79e-f636-c146-a5ab-8b4604e458b3
f 20/12/3 23/11/3 21/10/3 18/9/3
o bb_main
v 0.27287953796180947 -0.3125 0.008783644965314127
v 0.27287953796180947 -0.3125 0.008783644965314127
v 0.27287953796180947 -0.5 0.008783644965314127
v 0.27287953796180947 -0.5 0.008783644965314127
v 0.35212046203819053 -0.3125 0.17871635503468603
v 0.35212046203819053 -0.3125 0.17871635503468603
v 0.35212046203819053 -0.5 0.17871635503468603
v 0.35212046203819053 -0.5 0.17871635503468603
vt 0.5625 0.1875
vt 0.75 0.1875
vt 0.75 0
vt 0.5625 0
vn -0.90630778703665 0 0.4226182617406992
usemtl m_ca70e79e-f636-c146-a5ab-8b4604e458b3
f 28/16/4 31/15/4 29/14/4 26/13/4
o bb_main
v -0.40543561156321856 -0.3125 -0.181846183198679
v -0.40543561156321856 -0.3125 -0.181846183198679
v -0.40543561156321856 -0.5 -0.181846183198679
v -0.40543561156321856 -0.5 -0.181846183198679
v -0.46956438843678144 -0.3125 -0.005653816801321196
v -0.46956438843678144 -0.3125 -0.005653816801321196
v -0.46956438843678144 -0.5 -0.005653816801321196
v -0.46956438843678144 -0.5 -0.005653816801321196
vt 0.8125 0.1875
vt 1 0.1875
vt 1 0
vt 0.8125 0
vn -0.9396926207859083 0 -0.3420201433256689
usemtl m_ca70e79e-f636-c146-a5ab-8b4604e458b3
f 36/20/5 39/19/5 37/18/5 34/17/5
o bb_main
v 0.171875 -0.3125 0.012560118395208902
v 0.171875 -0.3125 0.012560118395208902
v 0.171875 -0.5 0.012560118395208902
v 0.171875 -0.5 0.012560118395208902
v 0.07812499999999996 -0.3125 0.17493988160479115
v 0.07812499999999996 -0.3125 0.17493988160479115
v 0.07812499999999996 -0.5 0.17493988160479115
v 0.07812499999999996 -0.5 0.17493988160479115
vt 0 0.1875
vt 0.1875 0.1875
vt 0.1875 0
vt 0 0
vn -0.8660254037844386 0 -0.5000000000000001
usemtl m_ca70e79e-f636-c146-a5ab-8b4604e458b3
f 44/24/6 47/23/6 45/22/6 42/21/6
o bb_main
v -0.24999999999999994 -0.3125 -0.18750000000000006
v -0.24999999999999994 -0.3125 -0.18750000000000006
v -0.24999999999999994 -0.5 -0.18750000000000006
v -0.24999999999999994 -0.5 -0.18750000000000006
v -0.25 -0.3125 -5.551115123125783e-17
v -0.25 -0.3125 -5.551115123125783e-17
v -0.25 -0.5 -5.551115123125783e-17
v -0.25 -0.5 -5.551115123125783e-17
vt 0.25 0.1875
vt 0.4375 0.1875
vt 0.4375 0
vt 0.25 0
vn -1 0 -2.220446049250313e-16
usemtl m_ca70e79e-f636-c146-a5ab-8b4604e458b3
f 52/28/7 55/27/7 53/26/7 50/25/7
o bb_main
v 1.3877787807814457e-17 -0.3125 -0.0625
v 1.3877787807814457e-17 -0.3125 -0.0625
v 1.3877787807814457e-17 -0.5 -0.0625
v 1.3877787807814457e-17 -0.5 -0.0625
v -2.7755575615628914e-17 -0.3125 0.125
v -2.7755575615628914e-17 -0.3125 0.125
v -2.7755575615628914e-17 -0.5 0.125
v -2.7755575615628914e-17 -0.5 0.125
vt 0.5625 0.1875
vt 0.75 0.1875
vt 0.75 0
vt 0.5625 0
vn -1 0 -2.220446049250313e-16
usemtl m_ca70e79e-f636-c146-a5ab-8b4604e458b3
f 60/32/8 63/31/8 61/30/8 58/29/8
o bb_main
v -0.01921106750921553 -0.3125 -0.17690726561045828
v -0.01921106750921553 -0.3125 -0.17690726561045828
v -0.01921106750921553 -0.5 -0.17690726561045828
v -0.01921106750921553 -0.5 -0.17690726561045828
v -0.10578893249078443 -0.3125 -0.010592734389541739
v -0.10578893249078443 -0.3125 -0.010592734389541739
v -0.10578893249078443 -0.5 -0.010592734389541739
v -0.10578893249078443 -0.5 -0.010592734389541739
vt 0.8125 0.1875
vt 1 0.1875
vt 1 0
vt 0.8125 0
vn -0.8870108331782216 0 -0.46174861323503413
usemtl m_ca70e79e-f636-c146-a5ab-8b4604e458b3
f 68/36/9 71/35/9 69/34/9 66/33/9
o bb_main
v -0.21956438843678144 -0.3125 0.005653816801321029
v -0.21956438843678144 -0.3125 0.005653816801321029
v -0.21956438843678144 -0.5 0.005653816801321029
v -0.21956438843678144 -0.5 0.005653816801321029
v -0.1554356115632186 -0.3125 0.1818461831986789
v -0.1554356115632186 -0.3125 0.1818461831986789
v -0.1554356115632186 -0.5 0.1818461831986789
v -0.1554356115632186 -0.5 0.1818461831986789
vt 0 0.1875
vt 0.1875 0.1875
vt 0.1875 0
vt 0 0
vn -0.9396926207859085 0 0.34202014332566844
usemtl m_ca70e79e-f636-c146-a5ab-8b4604e458b3
f 76/40/10 79/39/10 77/38/10 74/37/10