# Made in Blockbench 4.12.4
mtllib rua_orelhao.mtl

o estaca
v 0.09375 1.59375 0.09375
v 0.09375 1.59375 -0.09375
v 0.09375 -0.46875 0.09375
v 0.09375 -0.46875 -0.09375
v -0.09375 1.59375 -0.09375
v -0.09375 1.59375 0.09375
v -0.09375 -0.46875 -0.09375
v -0.09375 -0.46875 0.09375
vt 0 0.65625
vt 0.046875 0.65625
vt 0.046875 0.140625
vt 0 0.140625
vt 0 0.65625
vt 0.046875 0.65625
vt 0.046875 0.140625
vt 0 0.140625
vt 0 0.65625
vt 0.046875 0.65625
vt 0.046875 0.140625
vt 0 0.140625
vt 0 0.65625
vt 0.046875 0.65625
vt 0.046875 0.140625
vt 0 0.140625
vt 0 0.65625
vt 0.046875 0.65625
vt 0.046875 0.609375
vt 0 0.609375
vt 0 0.65625
vt 0.046875 0.65625
vt 0.046875 0.609375
vt 0 0.609375
vn 0 0 -1
vn 1 0 0
vn 0 0 1
vn -1 0 0
vn 0 1 0
vn 0 -1 0
usemtl m_f57dd7d6-2ecc-2f40-0456-e0c735b7c89e
f 4/4/1 7/3/1 5/2/1 2/1/1
f 3/8/2 4/7/2 2/6/2 1/5/2
f 8/12/3 3/11/3 1/10/3 6/9/3
f 7/16/4 8/15/4 6/14/4 5/13/4
f 6/20/5 1/19/5 2/18/5 5/17/5
f 7/24/6 4/23/6 3/22/6 8/21/6
o orelhao
v 0.5 2.019420322169964 -0.5273674474051329
v 0.5 1.8759140350330554 -0.8738222720968654
v 0.5 0.7490859649669447 -0.0011777279031345844
v 0.5 0.6055796778300361 -0.3476325525948671
v -0.5 1.8759140350330554 -0.8738222720968654
v -0.5 2.019420322169964 -0.5273674474051329
v -0.5 0.6055796778300361 -0.3476325525948671
v -0.5 0.7490859649669447 -0.0011777279031345844
vt 0 1
vt 0.25 1
vt 0.25 0.65625
vt 0 0.65625
vt 0.265625 0.640625
vt 0.359375 0.640625
vt 0.359375 0.296875
vt 0.265625 0.296875
vt 0.265625 1
vt 0.515625 1
vt 0.515625 0.65625
vt 0.265625 0.65625
vt 0.265625 0.640625
vt 0.359375 0.640625
vt 0.359375 0.296875
vt 0.265625 0.296875
vt 0.375 0.640625
vt 0.625 0.640625
vt 0.625 0.546875
vt 0.375 0.546875
vt 0.375 0.640625
vt 0.625 0.640625
vt 0.625 0.546875
vt 0.375 0.546875
vn 0 -0.3826834323650897 -0.9238795325112867
vn 1 0 0
vn 0 0.3826834323650897 0.9238795325112867
vn -1 0 0
vn 0 0.9238795325112867 -0.3826834323650897
vn 0 -0.9238795325112867 0.3826834323650897
usemtl m_f57dd7d6-2ecc-2f40-0456-e0c735b7c89e
f 12/28/7 15/27/7 13/26/7 10/25/7
f 11/32/8 12/31/8 10/30/8 9/29/8
f 16/36/9 11/35/9 9/34/9 14/33/9
f 15/40/10 16/39/10 14/38/10 13/37/10
f 14/44/11 9/43/11 10/42/11 13/41/11
f 15/48/12 12/47/12 11/46/12 16/45/12
o fundo
v 0.375 1.8746103489086772 -0.16296238618118686
v 0.375 1.7550217762945866 -0.451674740090964
v 0.375 1.1817006995252122 0.12405018809263046
v 0.375 1.0621121269111216 -0.16466216581714666
v -0.375 1.7550217762945866 -0.451674740090964
v -0.375 1.8746103489086772 -0.16296238618118686
v -0.375 1.0621121269111216 -0.16466216581714666
v -0.375 1.1817006995252122 0.12405018809263046
vt 0.546875 0.890625
vt 0.734375 0.890625
vt 0.734375 0.703125
vt 0.546875 0.703125
vt 0.375 0.640625
vt 0.453125 0.640625
vt 0.453125 0.453125
vt 0.375 0.453125
vt 0.375 0.640625
vt 0.5625 0.640625
vt 0.5625 0.453125
vt 0.375 0.453125
vt 0.375 0.640625
vt 0.453125 0.640625
vt 0.453125 0.453125
vt 0.375 0.453125
vt 0.375 0.640625
vt 0.5625 0.640625
vt 0.5625 0.5625
vt 0.375 0.5625
vt 0.375 0.640625
vt 0.5625 0.640625
vt 0.5625 0.5625
vt 0.375 0.5625
vn 0 -0.3826834323650897 -0.9238795325112867
vn 1 0 0
vn 0 0.3826834323650897 0.9238795325112867
vn -1 0 0
vn 0 0.9238795325112867 -0.3826834323650897
vn 0 -0.9238795325112867 0.3826834323650897
usemtl m_f57dd7d6-2ecc-2f40-0456-e0c735b7c89e
f 20/52/13 23/51/13 21/50/13 18/49/13
f 19/56/14 20/55/14 18/54/14 17/53/14
f 24/60/15 19/59/15 17/58/15 22/57/15
f 23/64/16 24/63/16 22/62/16 21/61/16
f 22/68/17 17/67/17 18/66/17 21/65/17
f 23/72/18 20/71/18 19/70/18 24/69/18